<svg id="Ñëîé_1" data-name="Ñëîé 1" xmlns="http://www.w3.org/2000/svg" viewBox="0 0 400.19 356.86"><defs><style>.cls-1,.cls-2{fill:#173d7a;}.cls-1{opacity:0.5;}.cls-3{fill:#396caa;}.cls-4{fill:#274f89;}.cls-5{fill:#d4ecff;}.cls-6{fill:#fff;}.cls-7{fill:#5793ce;}.cls-8{fill:#ff2c9c;}.cls-9{fill:#d3008d;}.cls-10{fill:#e573b5;}.cls-11{fill:#b70083;}</style></defs><path class="cls-1" d="M122.91,323.33-19.85,240.9c-4-2.33-3.54-6.4,1.13-9.1l97.21-56.1c4.66-2.7,11.72-3,15.76-.66L237,257.47c4,2.33,3.53,6.4-1.13,9.1l-97.21,56.1C134,325.36,127,325.66,122.91,323.33Z" transform="translate(117.44 -11.5)"/><path class="cls-2" d="M277,98.19,128.46,12.42a6,6,0,0,0-5-.62h0l-.27.1-.06,0L117.73,14l4.82,2.36c0,.08,0,.17-.07.26L98.28,126.73c-1.21,5.51,1.22,12,5.42,14.38l145,83.7-.52,6.14,5.87-2.27c2-.92,3.55-3,4.2-6l24.2-110.14C283.64,107.05,281.22,100.61,277,98.19Z" transform="translate(117.44 -11.5)"/><path class="cls-3" d="M277,98.19,128.46,12.42a6,6,0,0,0-5-.62h0l-.27.1-.06,0L117.73,14l4.82,2.36c0,.08,0,.17-.07.26l-16,72.59,72.69,56.63,102.49-41.7A11.52,11.52,0,0,0,277,98.19Z" transform="translate(117.44 -11.5)"/><path class="cls-4" d="M271.41,115.12l11.31-4.82c.21-4.38-1.61-8.9-4.58-11.32l-17.9,7.53Z" transform="translate(117.44 -11.5)"/><path class="cls-5" d="M243,230.37,94.45,144.6c-4.21-2.42-6.63-8.86-5.42-14.37l24.2-110.15c1.21-5.51,5.6-8,9.8-5.58l148.55,85.77c4.21,2.42,6.63,8.86,5.42,14.37L252.8,224.78C251.59,230.3,247.2,232.8,243,230.37Z" transform="translate(117.44 -11.5)"/><path class="cls-6" d="M273,99.74,124.46,14a5.86,5.86,0,0,0-5.85-.26,6.12,6.12,0,0,1,4.42.78l148.55,85.76c4.21,2.43,6.63,8.87,5.42,14.38L252.8,224.78a8.34,8.34,0,0,1-4,5.84c2.51-.54,4.6-2.82,5.38-6.36l24.2-110.14C279.64,108.61,277.21,102.17,273,99.74Z" transform="translate(117.44 -11.5)"/><path class="cls-6" d="M239.78,222.18,100.07,141.55c-3.85-2.22-6.07-8.1-5-13.15L117.25,27.61c1.11-5,5.13-7.33,9-5.11l139.72,80.62c3.84,2.22,6.06,8.11,4.95,13.15L248.75,217.06C247.64,222.11,243.63,224.4,239.78,222.18Z" transform="translate(117.44 -11.5)"/><path class="cls-2" d="M239.78,222.18,100.07,141.55c-3.85-2.22-6.07-8.1-5-13.15L117.25,27.61c1.11-5,5.13-7.33,9-5.11l139.72,80.62c3.84,2.22,6.06,8.11,4.95,13.15L248.75,217.06C247.64,222.11,243.63,224.4,239.78,222.18Z" transform="translate(117.44 -11.5)"/><path class="cls-7" d="M241,221.68,101.29,141.06c-3.85-2.22-6.07-8.11-5-13.15l22.14-100.8a7.72,7.72,0,0,1,3.52-5.3c-2.21.57-4,2.64-4.74,5.8L95.11,128.4c-1.11,5,1.11,10.93,5,13.15l139.71,80.63a5.37,5.37,0,0,0,5.45.19A5.58,5.58,0,0,1,241,221.68Z" transform="translate(117.44 -11.5)"/><path class="cls-2" d="M245.05,234.11l-20.3-2.69L93.66,155.74c-4.2-2.42-11.54-2.12-16.39.68L-15.62,210l-12.27-1.62v7h0c-.08,1.61.83,3.16,2.82,4.3l148.55,85.77c4.2,2.43,11.54,2.12,16.4-.68L241,246.39c2.73-1.58,4.09-3.61,4-5.52h0Z" transform="translate(117.44 -11.5)"/><path class="cls-3" d="M146.56,186.29l-9.31-5.38H34.86L-15.62,210l-12.27-1.62v7h0c-.08,1.61.83,3.16,2.82,4.3l148.55,85.77A15.47,15.47,0,0,0,132,307Z" transform="translate(117.44 -11.5)"/><path class="cls-7" d="M-22.44,209.13l-5.45-.72v7h0c-.08,1.61.83,3.16,2.82,4.3l2.62,1.51Z" transform="translate(117.44 -11.5)"/><path class="cls-4" d="M125,306.15a19,19,0,0,0,13.93-.87V289.74H125Z" transform="translate(117.44 -11.5)"/><path class="cls-5" d="M123.49,298.49-25.06,212.72c-4.21-2.42-3.68-6.66,1.17-9.46L77.27,144.88c4.85-2.81,12.19-3.11,16.39-.68L242.22,230c4.2,2.43,3.67,6.67-1.18,9.47L139.89,297.81C135,300.61,127.69,300.92,123.49,298.49Z" transform="translate(117.44 -11.5)"/><path class="cls-6" d="M241,236.88,139.89,295.27c-4.86,2.8-12.2,3.1-16.4.68L-25.06,210.18a5.58,5.58,0,0,1-2.62-2.86c-.65,2,.19,4,2.62,5.4l148.55,85.77c4.2,2.43,11.54,2.12,16.4-.68L241,239.43c3.26-1.88,4.56-4.41,3.79-6.61A7.87,7.87,0,0,1,241,236.88Z" transform="translate(117.44 -11.5)"/><path class="cls-7" d="M38.12,184.33l-6.72-3.88c-.54-.31-.47-.86.15-1.22l7.93-4.58a2.36,2.36,0,0,1,2.11-.09l6.72,3.89c.54.31.47.85-.15,1.21l-7.93,4.58A2.36,2.36,0,0,1,38.12,184.33Z" transform="translate(117.44 -11.5)"/><path class="cls-7" d="M48.5,190.32l-6.72-3.88c-.54-.31-.47-.85.15-1.21l7.93-4.58a2.36,2.36,0,0,1,2.11-.09l6.72,3.88c.54.31.47.85-.15,1.21l-7.93,4.58A2.36,2.36,0,0,1,48.5,190.32Z" transform="translate(117.44 -11.5)"/><path class="cls-7" d="M58.88,196.31l-6.72-3.88c-.54-.31-.47-.85.15-1.21l7.93-4.58a2.36,2.36,0,0,1,2.11-.09l6.72,3.88c.54.31.47.86-.15,1.22L61,196.23A2.32,2.32,0,0,1,58.88,196.31Z" transform="translate(117.44 -11.5)"/><path class="cls-7" d="M73.24,191.37l-6.73-3.89c-.54-.31-.47-.85.16-1.21l6.66-3.85a2.33,2.33,0,0,1,2.1-.08l6.72,3.88c.54.31.47.85-.15,1.21l-6.66,3.85A2.33,2.33,0,0,1,73.24,191.37Z" transform="translate(117.44 -11.5)"/><path class="cls-7" d="M83.62,197.36l-6.73-3.88c-.54-.31-.47-.86.16-1.22l6.66-3.84a2.33,2.33,0,0,1,2.1-.09l6.72,3.88c.54.31.47.86-.15,1.22l-6.66,3.84A2.33,2.33,0,0,1,83.62,197.36Z" transform="translate(117.44 -11.5)"/><path class="cls-7" d="M94,203.35l-6.73-3.88c-.54-.31-.47-.86.16-1.21l6.66-3.85a2.33,2.33,0,0,1,2.1-.09l6.72,3.88c.54.32.47.86-.15,1.22l-6.66,3.84A2.33,2.33,0,0,1,94,203.35Z" transform="translate(117.44 -11.5)"/><path class="cls-7" d="M104.38,209.34l-6.73-3.88c-.54-.31-.47-.85.16-1.21l6.66-3.85a2.3,2.3,0,0,1,2.1-.08l6.72,3.88c.54.31.47.85-.15,1.21l-6.66,3.85A2.3,2.3,0,0,1,104.38,209.34Z" transform="translate(117.44 -11.5)"/><path class="cls-7" d="M114.76,215.34,108,211.46c-.54-.31-.47-.86.16-1.22l6.66-3.84a2.33,2.33,0,0,1,2.1-.09l6.72,3.88c.54.31.47.86-.15,1.21l-6.66,3.85A2.33,2.33,0,0,1,114.76,215.34Z" transform="translate(117.44 -11.5)"/><path class="cls-7" d="M125.14,221.33l-6.73-3.88c-.54-.31-.47-.86.16-1.22l6.66-3.84a2.33,2.33,0,0,1,2.1-.09l6.72,3.88c.54.31.47.86-.15,1.22l-6.66,3.84A2.33,2.33,0,0,1,125.14,221.33Z" transform="translate(117.44 -11.5)"/><path class="cls-7" d="M135.52,227.32l-6.73-3.88c-.54-.31-.47-.85.16-1.21l6.66-3.85a2.33,2.33,0,0,1,2.1-.09l6.72,3.89c.54.31.47.85-.15,1.21l-6.66,3.85A2.33,2.33,0,0,1,135.52,227.32Z" transform="translate(117.44 -11.5)"/><path class="cls-7" d="M145.9,233.32l-6.73-3.88c-.54-.32-.47-.86.16-1.22l6.66-3.85a2.33,2.33,0,0,1,2.1-.08l6.72,3.88c.54.31.47.85-.15,1.21L148,233.23A2.33,2.33,0,0,1,145.9,233.32Z" transform="translate(117.44 -11.5)"/><path class="cls-7" d="M156.28,239.31l-6.73-3.88c-.54-.31-.47-.86.16-1.22l6.66-3.84a2.33,2.33,0,0,1,2.1-.09l6.72,3.88c.54.31.47.86-.15,1.22l-6.66,3.84A2.33,2.33,0,0,1,156.28,239.31Z" transform="translate(117.44 -11.5)"/><path class="cls-7" d="M166.66,245.3l-6.73-3.88c-.53-.31-.47-.85.16-1.21l6.66-3.85a2.33,2.33,0,0,1,2.1-.09l6.72,3.88c.54.32.47.86-.15,1.22l-6.66,3.84A2.33,2.33,0,0,1,166.66,245.3Z" transform="translate(117.44 -11.5)"/><path class="cls-7" d="M88.53,188.53l-6.72-3.88c-.54-.31-.47-.86.15-1.22l6.66-3.84a2.35,2.35,0,0,1,2.11-.09l6.72,3.88c.54.31.47.86-.15,1.22l-6.66,3.84A2.36,2.36,0,0,1,88.53,188.53Z" transform="translate(117.44 -11.5)"/><path class="cls-7" d="M78,182.45l-6.73-3.88c-.54-.32-.47-.86.15-1.22l6.66-3.85a2.35,2.35,0,0,1,2.11-.08l6.72,3.88c.54.31.47.85-.15,1.21l-6.66,3.85A2.33,2.33,0,0,1,78,182.45Z" transform="translate(117.44 -11.5)"/><path class="cls-7" d="M67.44,176.35,53,168c-.54-.32-.48-.86.15-1.22l6.66-3.85a2.36,2.36,0,0,1,2.1-.08l14.48,8.36c.54.31.47.85-.15,1.21l-6.66,3.85A2.32,2.32,0,0,1,67.44,176.35Z" transform="translate(117.44 -11.5)"/><path class="cls-7" d="M74.82,168.94l-11.75-6.78c-.54-.31-.47-.85.15-1.21l6.66-3.85A2.36,2.36,0,0,1,72,157l11.75,6.79c.54.31.47.85-.16,1.21l-6.66,3.85A2.3,2.3,0,0,1,74.82,168.94Z" transform="translate(117.44 -11.5)"/><path class="cls-7" d="M98.91,194.52l-6.72-3.88c-.54-.31-.47-.86.15-1.22L99,185.58a2.35,2.35,0,0,1,2.11-.09l6.72,3.88c.54.31.47.86-.15,1.22L101,194.43A2.36,2.36,0,0,1,98.91,194.52Z" transform="translate(117.44 -11.5)"/><path class="cls-7" d="M109.29,200.51l-6.72-3.88c-.54-.31-.47-.85.15-1.21l6.66-3.85a2.32,2.32,0,0,1,2.11-.08l6.72,3.88c.54.31.47.85-.15,1.21l-6.66,3.85A2.32,2.32,0,0,1,109.29,200.51Z" transform="translate(117.44 -11.5)"/><path class="cls-7" d="M119.67,206.51,113,202.63c-.54-.32-.47-.86.15-1.22l6.66-3.84a2.35,2.35,0,0,1,2.11-.09l6.72,3.88c.54.31.47.85-.15,1.21l-6.66,3.85A2.36,2.36,0,0,1,119.67,206.51Z" transform="translate(117.44 -11.5)"/><path class="cls-7" d="M130.05,212.5l-6.72-3.88c-.54-.31-.47-.86.15-1.22l6.66-3.84a2.35,2.35,0,0,1,2.11-.09l6.72,3.88c.54.31.47.86-.15,1.22l-6.66,3.84A2.36,2.36,0,0,1,130.05,212.5Z" transform="translate(117.44 -11.5)"/><path class="cls-7" d="M140.43,218.49l-6.72-3.88c-.54-.31-.47-.85.15-1.21l6.66-3.85a2.35,2.35,0,0,1,2.11-.09l6.72,3.88c.54.32.47.86-.15,1.22l-6.66,3.85A2.35,2.35,0,0,1,140.43,218.49Z" transform="translate(117.44 -11.5)"/><path class="cls-7" d="M150.81,224.49l-6.72-3.88c-.54-.32-.47-.86.15-1.22l6.66-3.85a2.35,2.35,0,0,1,2.11-.08l6.72,3.88c.54.31.47.85-.15,1.21l-6.66,3.85A2.36,2.36,0,0,1,150.81,224.49Z" transform="translate(117.44 -11.5)"/><path class="cls-7" d="M161.19,230.48l-6.72-3.88c-.54-.31-.47-.86.15-1.22l6.66-3.84a2.35,2.35,0,0,1,2.11-.09l6.72,3.88c.54.31.47.86-.15,1.22l-6.66,3.84A2.36,2.36,0,0,1,161.19,230.48Z" transform="translate(117.44 -11.5)"/><path class="cls-7" d="M171.57,236.47l-6.72-3.88c-.54-.31-.47-.85.15-1.21l6.66-3.85a2.35,2.35,0,0,1,2.11-.09l6.72,3.88c.54.32.47.86-.15,1.22l-6.66,3.84A2.36,2.36,0,0,1,171.57,236.47Z" transform="translate(117.44 -11.5)"/><path class="cls-7" d="M182,242.46l-6.72-3.88c-.54-.31-.47-.85.15-1.21l6.66-3.85a2.32,2.32,0,0,1,2.11-.08l6.72,3.88c.54.31.47.85-.15,1.21l-6.66,3.85A2.32,2.32,0,0,1,182,242.46Z" transform="translate(117.44 -11.5)"/><path class="cls-7" d="M200.4,253.12l-14.66-8.47c-.54-.31-.47-.85.15-1.21l6.66-3.85a2.33,2.33,0,0,1,2.1-.09L209.32,248c.54.31.47.86-.15,1.22L202.51,253A2.35,2.35,0,0,1,200.4,253.12Z" transform="translate(117.44 -11.5)"/><path class="cls-7" d="M220.61,241.45l-12.38-7.15c-.54-.31-.47-.85.16-1.21l6.66-3.85a2.3,2.3,0,0,1,2.1-.08l12.38,7.14c.54.31.47.86-.15,1.22l-6.66,3.84A2.36,2.36,0,0,1,220.61,241.45Z" transform="translate(117.44 -11.5)"/><path class="cls-7" d="M117.09,193.35l-6.72-3.88c-.54-.31-.48-.86.15-1.22l6.66-3.84a2.33,2.33,0,0,1,2.1-.09L126,188.2c.54.31.48.86-.15,1.22l-6.66,3.84A2.33,2.33,0,0,1,117.09,193.35Z" transform="translate(117.44 -11.5)"/><path class="cls-7" d="M106.45,187.21l-6.72-3.88c-.54-.32-.47-.86.15-1.22l6.66-3.84a2.33,2.33,0,0,1,2.1-.09l6.73,3.88c.54.31.47.85-.15,1.21l-6.66,3.85A2.36,2.36,0,0,1,106.45,187.21Z" transform="translate(117.44 -11.5)"/><path class="cls-7" d="M95.81,181.06l-6.72-3.88c-.54-.31-.47-.85.15-1.21l6.66-3.85A2.32,2.32,0,0,1,98,172l6.72,3.88c.54.31.47.85-.15,1.21L97.92,181A2.32,2.32,0,0,1,95.81,181.06Z" transform="translate(117.44 -11.5)"/><path class="cls-7" d="M85.17,174.92,78.45,171c-.54-.31-.47-.85.15-1.21L85.26,166a2.36,2.36,0,0,1,2.11-.09l6.72,3.88c.54.32.47.86-.15,1.22l-6.66,3.85A2.35,2.35,0,0,1,85.17,174.92Z" transform="translate(117.44 -11.5)"/><path class="cls-7" d="M127.47,199.34l-6.72-3.88c-.54-.31-.48-.85.15-1.21l6.66-3.85a2.33,2.33,0,0,1,2.1-.09l6.72,3.88c.54.32.48.86-.15,1.22l-6.66,3.84A2.33,2.33,0,0,1,127.47,199.34Z" transform="translate(117.44 -11.5)"/><path class="cls-7" d="M137.85,205.33l-6.72-3.88c-.54-.31-.48-.85.15-1.21l6.66-3.85a2.3,2.3,0,0,1,2.1-.08l6.72,3.88c.54.31.48.85-.15,1.21L140,205.25A2.3,2.3,0,0,1,137.85,205.33Z" transform="translate(117.44 -11.5)"/><path class="cls-7" d="M148.23,211.33l-6.72-3.88c-.54-.31-.48-.86.15-1.22l6.66-3.84a2.33,2.33,0,0,1,2.1-.09l6.72,3.88c.54.31.48.86-.15,1.22l-6.66,3.84A2.33,2.33,0,0,1,148.23,211.33Z" transform="translate(117.44 -11.5)"/><path class="cls-7" d="M158.61,217.32l-6.72-3.88c-.54-.31-.48-.86.15-1.22l6.66-3.84a2.33,2.33,0,0,1,2.1-.09l6.72,3.88c.54.31.48.86-.15,1.22l-6.66,3.84A2.33,2.33,0,0,1,158.61,217.32Z" transform="translate(117.44 -11.5)"/><path class="cls-7" d="M169,223.31l-6.72-3.88c-.54-.31-.48-.85.15-1.21l6.66-3.85a2.33,2.33,0,0,1,2.1-.09l6.72,3.89c.54.31.48.85-.15,1.21l-6.66,3.85A2.33,2.33,0,0,1,169,223.31Z" transform="translate(117.44 -11.5)"/><path class="cls-7" d="M179.37,229.31l-6.72-3.88c-.54-.32-.48-.86.15-1.22l6.66-3.85a2.33,2.33,0,0,1,2.1-.08l6.72,3.88c.54.31.48.85-.15,1.21l-6.66,3.85A2.33,2.33,0,0,1,179.37,229.31Z" transform="translate(117.44 -11.5)"/><path class="cls-7" d="M189.75,235.3,183,231.42c-.54-.31-.48-.86.15-1.22l6.66-3.84a2.33,2.33,0,0,1,2.1-.09l6.72,3.88c.54.31.48.86-.15,1.22l-6.66,3.84A2.33,2.33,0,0,1,189.75,235.3Z" transform="translate(117.44 -11.5)"/><path class="cls-7" d="M200.13,241.29l-6.72-3.88c-.54-.31-.48-.85.15-1.21l6.66-3.85a2.33,2.33,0,0,1,2.1-.09l6.72,3.88c.54.32.48.86-.15,1.22l-6.66,3.84A2.33,2.33,0,0,1,200.13,241.29Z" transform="translate(117.44 -11.5)"/><path class="cls-7" d="M210.51,247.28l-6.72-3.88c-.54-.31-.48-.85.15-1.21l6.66-3.85a2.3,2.3,0,0,1,2.1-.08l6.72,3.88c.54.31.48.85-.15,1.21l-6.66,3.85A2.3,2.3,0,0,1,210.51,247.28Z" transform="translate(117.44 -11.5)"/><path class="cls-7" d="M111.62,178.53l-6.72-3.89c-.54-.31-.47-.85.15-1.21l6.66-3.85a2.35,2.35,0,0,1,2.11-.08l6.72,3.88c.54.31.47.85-.15,1.21l-6.66,3.85A2.36,2.36,0,0,1,111.62,178.53Z" transform="translate(117.44 -11.5)"/><path class="cls-7" d="M101.29,172.56l-6.72-3.88c-.54-.31-.47-.85.15-1.21l6.66-3.85a2.36,2.36,0,0,1,2.11-.09l6.72,3.88c.54.32.47.86-.15,1.22l-6.66,3.85A2.38,2.38,0,0,1,101.29,172.56Z" transform="translate(117.44 -11.5)"/><path class="cls-7" d="M91,166.6l-6.73-3.88c-.54-.31-.47-.86.16-1.22l6.65-3.84a2.36,2.36,0,0,1,2.11-.09l6.72,3.88c.54.31.47.86-.15,1.22l-6.66,3.84A2.33,2.33,0,0,1,91,166.6Z" transform="translate(117.44 -11.5)"/><path class="cls-7" d="M80.64,160.64l-6.72-3.88c-.54-.32-.48-.86.15-1.22l6.66-3.85a2.36,2.36,0,0,1,2.1-.08l6.72,3.88c.54.31.48.85-.15,1.21l-6.66,3.85A2.33,2.33,0,0,1,80.64,160.64Z" transform="translate(117.44 -11.5)"/><path class="cls-7" d="M91.26,154.5l-6.72-3.88c-.54-.31-.48-.85.15-1.21l2.2-1.27a2.33,2.33,0,0,1,2.1-.09l6.73,3.88c.54.31.47.86-.16,1.22l-2.2,1.27A2.3,2.3,0,0,1,91.26,154.5Z" transform="translate(117.44 -11.5)"/><path class="cls-7" d="M104.74,162.29,98,158.41c-.53-.32-.47-.86.16-1.22l2.2-1.27a2.33,2.33,0,0,1,2.1-.09l6.72,3.88c.54.31.48.86-.15,1.22l-2.2,1.27A2.33,2.33,0,0,1,104.74,162.29Z" transform="translate(117.44 -11.5)"/><path class="cls-7" d="M115,168.22l-6.72-3.88c-.54-.31-.47-.85.15-1.21l2.2-1.27a2.36,2.36,0,0,1,2.11-.09l6.72,3.88c.54.31.47.86-.15,1.22l-2.2,1.27A2.32,2.32,0,0,1,115,168.22Z" transform="translate(117.44 -11.5)"/><path class="cls-7" d="M125.31,174.16l-6.72-3.88c-.54-.31-.48-.85.15-1.21l2.2-1.27a2.33,2.33,0,0,1,2.1-.09l6.73,3.88c.53.31.47.85-.16,1.21l-2.2,1.28A2.33,2.33,0,0,1,125.31,174.16Z" transform="translate(117.44 -11.5)"/><path class="cls-7" d="M135.59,180.1l-6.72-3.88c-.54-.31-.47-.86.15-1.22l2.2-1.27a2.32,2.32,0,0,1,2.11-.08l6.72,3.88c.54.31.47.85-.15,1.21L137.7,180A2.36,2.36,0,0,1,135.59,180.1Z" transform="translate(117.44 -11.5)"/><path class="cls-7" d="M193,213.25l-6.72-3.88c-.54-.31-.47-.85.15-1.21l2.21-1.27a2.33,2.33,0,0,1,2.1-.09l6.72,3.88c.54.31.47.86-.15,1.21l-2.2,1.28A2.35,2.35,0,0,1,193,213.25Z" transform="translate(117.44 -11.5)"/><path class="cls-7" d="M203.3,219.19l-6.72-3.88c-.54-.31-.47-.85.15-1.21l2.2-1.28a2.35,2.35,0,0,1,2.11-.08l6.72,3.88c.54.31.47.85-.15,1.21l-2.21,1.27A2.33,2.33,0,0,1,203.3,219.19Z" transform="translate(117.44 -11.5)"/><path class="cls-7" d="M213.58,225.13l-6.72-3.88c-.54-.31-.47-.86.15-1.22l2.21-1.27a2.3,2.3,0,0,1,2.1-.08l6.72,3.88c.54.31.47.85-.15,1.21l-2.2,1.27A2.35,2.35,0,0,1,213.58,225.13Z" transform="translate(117.44 -11.5)"/><path class="cls-7" d="M223.87,231.07l-6.72-3.88c-.54-.31-.47-.86.15-1.22l2.2-1.27a2.35,2.35,0,0,1,2.11-.09l6.72,3.88c.54.32.47.86-.15,1.22L226,231A2.36,2.36,0,0,1,223.87,231.07Z" transform="translate(117.44 -11.5)"/><path class="cls-7" d="M122,184.52l-6.72-3.88c-.54-.31-.47-.86.15-1.22l6.66-3.84a2.35,2.35,0,0,1,2.11-.09l6.72,3.88c.54.31.47.86-.15,1.22l-6.66,3.84A2.36,2.36,0,0,1,122,184.52Z" transform="translate(117.44 -11.5)"/><path class="cls-7" d="M132.38,190.51l-6.72-3.88c-.54-.31-.47-.86.15-1.21l6.66-3.85a2.35,2.35,0,0,1,2.11-.09l6.72,3.88c.54.31.47.86-.15,1.22l-6.66,3.84A2.36,2.36,0,0,1,132.38,190.51Z" transform="translate(117.44 -11.5)"/><path class="cls-7" d="M142.76,196.5,136,192.62c-.54-.31-.47-.85.15-1.21l6.66-3.85a2.32,2.32,0,0,1,2.11-.08l6.72,3.88c.54.31.47.85-.15,1.21l-6.66,3.85A2.32,2.32,0,0,1,142.76,196.5Z" transform="translate(117.44 -11.5)"/><path class="cls-7" d="M153.14,202.5l-6.72-3.88c-.54-.32-.47-.86.15-1.22l6.66-3.84a2.36,2.36,0,0,1,2.11-.09l6.72,3.88c.54.31.47.86-.15,1.21l-6.66,3.85A2.36,2.36,0,0,1,153.14,202.5Z" transform="translate(117.44 -11.5)"/><path class="cls-7" d="M163.52,208.49l-6.72-3.88c-.54-.31-.47-.86.15-1.22l6.66-3.84a2.36,2.36,0,0,1,2.11-.09l6.72,3.88c.54.31.47.86-.15,1.22l-6.66,3.84A2.36,2.36,0,0,1,163.52,208.49Z" transform="translate(117.44 -11.5)"/><path class="cls-7" d="M173.9,214.48l-6.72-3.88c-.54-.31-.47-.85.15-1.21l6.66-3.85a2.36,2.36,0,0,1,2.11-.09l6.72,3.89c.54.31.47.85-.15,1.21L176,214.4A2.35,2.35,0,0,1,173.9,214.48Z" transform="translate(117.44 -11.5)"/><path class="cls-7" d="M184.28,220.48l-6.72-3.88c-.54-.32-.47-.86.15-1.22l6.66-3.85a2.35,2.35,0,0,1,2.11-.08l6.72,3.88c.54.31.47.85-.15,1.21l-6.66,3.85A2.36,2.36,0,0,1,184.28,220.48Z" transform="translate(117.44 -11.5)"/><path class="cls-7" d="M194.66,226.47l-6.72-3.88c-.54-.31-.47-.86.15-1.22l6.66-3.84a2.36,2.36,0,0,1,2.11-.09l6.72,3.88c.54.31.47.86-.15,1.22l-6.66,3.84A2.36,2.36,0,0,1,194.66,226.47Z" transform="translate(117.44 -11.5)"/><path class="cls-7" d="M205,232.46l-6.72-3.88c-.54-.31-.47-.85.15-1.21l6.66-3.85a2.36,2.36,0,0,1,2.11-.09l6.72,3.88c.54.32.47.86-.15,1.22l-6.66,3.84A2.36,2.36,0,0,1,205,232.46Z" transform="translate(117.44 -11.5)"/><path class="cls-7" d="M62.66,185.26l-19.8-11.43c-.54-.31-.47-.86.15-1.22l6.66-3.84a2.36,2.36,0,0,1,2.11-.09l19.79,11.43c.54.31.48.86-.15,1.22l-6.66,3.84A2.33,2.33,0,0,1,62.66,185.26Z" transform="translate(117.44 -11.5)"/><path class="cls-7" d="M190.18,258.88l-19.8-11.43c-.54-.31-.47-.85.15-1.21l6.66-3.85a2.32,2.32,0,0,1,2.11-.08l19.8,11.42c.54.32.47.86-.16,1.22l-6.66,3.85A2.33,2.33,0,0,1,190.18,258.88Z" transform="translate(117.44 -11.5)"/><path class="cls-7" d="M148.67,248.15,142,244.27c-.54-.31-.48-.85.15-1.21l7.93-4.58a2.35,2.35,0,0,1,2.11-.09l6.72,3.88c.54.31.47.86-.15,1.22l-7.94,4.58A2.3,2.3,0,0,1,148.67,248.15Z" transform="translate(117.44 -11.5)"/><path class="cls-7" d="M73.29,204.63l-10.75-6.2c-.54-.31-.47-.86.15-1.22l7.93-4.58a2.36,2.36,0,0,1,2.11-.09l10.75,6.21c.54.31.47.86-.15,1.22l-7.94,4.58A2.33,2.33,0,0,1,73.29,204.63Z" transform="translate(117.44 -11.5)"/><path class="cls-7" d="M138.67,242.38l-10.75-6.21c-.54-.31-.47-.85.15-1.21l7.93-4.58a2.36,2.36,0,0,1,2.11-.09l10.75,6.21c.54.31.47.85-.15,1.21l-7.94,4.58A2.33,2.33,0,0,1,138.67,242.38Z" transform="translate(117.44 -11.5)"/><path class="cls-7" d="M88.26,213.28l-10.75-6.21c-.54-.31-.47-.85.16-1.21l7.93-4.58a2.33,2.33,0,0,1,2.1-.09l10.75,6.21c.54.31.48.85-.15,1.21l-7.93,4.58A2.35,2.35,0,0,1,88.26,213.28Z" transform="translate(117.44 -11.5)"/><path class="cls-7" d="M87.78,201.23l46.73,27c.58.33.58.87,0,1.21l-8.09,4.67a2.35,2.35,0,0,1-2.1,0l-46.73-27Z" transform="translate(117.44 -11.5)"/><path class="cls-7" d="M177.68,259l7.49,4.32c.44.26.38.7-.13,1l-3.24,1.87a1.9,1.9,0,0,1-1.73.07L172.58,262c-.44-.25-.38-.7.13-1l3.24-1.88A1.93,1.93,0,0,1,177.68,259Z" transform="translate(117.44 -11.5)"/><path class="cls-7" d="M167.21,253l7.49,4.32c.44.26.39.7-.12,1l-3.25,1.87a1.93,1.93,0,0,1-1.73.07l-7.48-4.32c-.45-.26-.39-.7.12-1l3.25-1.87A1.88,1.88,0,0,1,167.21,253Z" transform="translate(117.44 -11.5)"/><path class="cls-7" d="M156.83,247l7.49,4.33c.44.25.39.7-.12,1L161,254.18a2,2,0,0,1-1.73.07l-7.48-4.32c-.45-.26-.39-.71.12-1l3.25-1.87A1.91,1.91,0,0,1,156.83,247Z" transform="translate(117.44 -11.5)"/><path class="cls-7" d="M172.94,249.67l7.49,4.32c.44.26.39.7-.12,1l-3.25,1.87a1.88,1.88,0,0,1-1.72.07l-7.49-4.32c-.44-.26-.39-.7.12-1l3.25-1.87A1.88,1.88,0,0,1,172.94,249.67Z" transform="translate(117.44 -11.5)"/><path class="cls-6" d="M84,260.59,37.66,233.83c-1.35-.78-1.18-2.14.38-3l28-16.14a5.84,5.84,0,0,1,5.26-.22l46.35,26.76c1.35.78,1.18,2.14-.38,3l-28,16.14A5.84,5.84,0,0,1,84,260.59Z" transform="translate(117.44 -11.5)"/><path class="cls-1" d="M258.35,293.16a8.58,8.58,0,0,0-7.77,0l-100.24,57.9c-2.15,1.24-2.15,3.25,0,4.49a8.58,8.58,0,0,0,7.77,0l100.24-57.9C260.5,296.41,260.5,294.4,258.35,293.16Z" transform="translate(117.44 -11.5)"/><path class="cls-5" d="M275.48,261.8h0a.44.44,0,0,0-.47-.21L269,262.91l2.39,4.06,4.1-4.66A.44.44,0,0,0,275.48,261.8Z" transform="translate(117.44 -11.5)"/><path class="cls-7" d="M273.09,264.8a3,3,0,0,0-1.39-2.37,1,1,0,0,0-.91-.11,38.73,38.73,0,0,0-19.94,5.34l-.43.26L258,280.73l2.22-1.47A38.8,38.8,0,0,0,271.8,267.2l.95-1.55A1,1,0,0,0,273.09,264.8Z" transform="translate(117.44 -11.5)"/><path class="cls-5" d="M259.46,277.32a11.6,11.6,0,0,0-5.33-9.06c-2.91-1.66-5.25-.28-5.23,3.07a11.61,11.61,0,0,0,5.33,9.06C257.14,282,259.49,280.67,259.46,277.32Z" transform="translate(117.44 -11.5)"/><polygon class="cls-5" points="330.69 297.08 375.39 269.23 367.86 256.42 321.79 281.94 330.69 297.08"/><path class="cls-5" d="M215,304.54a13.69,13.69,0,0,0-6.29-10.7c-3.44-1.95-6.21-.33-6.18,3.63a13.75,13.75,0,0,0,6.29,10.71C212.3,310.13,215.07,308.5,215,304.54Z" transform="translate(117.44 -11.5)"/><path class="cls-5" d="M212.48,306a13.69,13.69,0,0,0-6.29-10.7c-3.44-2-6.21-.33-6.18,3.63a13.75,13.75,0,0,0,6.29,10.71C209.75,311.63,212.52,310,212.48,306Z" transform="translate(117.44 -11.5)"/><rect class="cls-5" x="142.38" y="311.11" width="68.6" height="17.56" transform="translate(-20.29 122.14) rotate(-30.45)"/><path class="cls-5" d="M153.35,340.8a13.7,13.7,0,0,0-6.3-10.7c-3.44-2-6.21-.33-6.18,3.63a13.73,13.73,0,0,0,6.3,10.71C150.61,346.39,153.38,344.76,153.35,340.8Z" transform="translate(117.44 -11.5)"/><path class="cls-3" d="M151.11,339.54a9,9,0,0,0-4.25-6.5c-2.21-1.26-3.89-.38-3.76,2a9.07,9.07,0,0,0,4.26,6.5C149.57,342.75,151.25,341.88,151.11,339.54Z" transform="translate(117.44 -11.5)"/><path class="cls-6" d="M215.48,304.28a13.72,13.72,0,0,0-6.29-10.71,4.9,4.9,0,0,0-3.69-.69c1.12-1.16,2.95-1.3,5-.12a13.71,13.71,0,0,1,6.29,10.71c0,2.36-1,3.89-2.49,4.32A4.86,4.86,0,0,0,215.48,304.28Z" transform="translate(117.44 -11.5)"/><path class="cls-7" d="M215.48,304.28a13.72,13.72,0,0,0-6.29-10.71c-1.72-1-3.27-1.05-4.39-.4l-3.35,2,1.59,2.72a14,14,0,0,0,5.71,9.71l1.6,2.71,3.35-2h0C214.82,307.66,215.5,306.26,215.48,304.28Z" transform="translate(117.44 -11.5)"/><path class="cls-5" d="M212.13,306.25a13.75,13.75,0,0,0-6.29-10.71c-3.44-2-6.21-.32-6.18,3.64a13.72,13.72,0,0,0,6.29,10.7C209.4,311.84,212.16,310.21,212.13,306.25Z" transform="translate(117.44 -11.5)"/><path class="cls-8" d="M148.33,341.3l-3.84-6.54L132,342.13a3.79,3.79,0,0,0-1.35,5.19h0a3.79,3.79,0,0,0,5.19,1.34Z" transform="translate(117.44 -11.5)"/><path class="cls-8" d="M149.1,339.56a5.92,5.92,0,0,0-2.71-4.62c-1.49-.85-2.68-.14-2.67,1.56a5.92,5.92,0,0,0,2.71,4.62C147.92,342,149.11,341.26,149.1,339.56Z" transform="translate(117.44 -11.5)"/><path class="cls-7" d="M163,316.5l-1.88-1.07c-1.08-.61-2.5-.46-4,.43l-6.44,3.79a4.9,4.9,0,0,0-2.18,3.85l0,3.23a2.56,2.56,0,0,1-.65,1.61l.24,1.5-1.6-.92h0a.83.83,0,0,1-.38-.79l0-3.22a10.26,10.26,0,0,1,4.56-8l6.44-3.78c2.15-1.27,4.18-1.49,5.72-.62l1.88,1.07a4,4,0,0,0,4-.43l26-15.26a.82.82,0,0,1,.85-.09h0l1.61.92-1.38.53a2.6,2.6,0,0,1-1.06,1.41l-26,15.27C166.6,317.15,164.57,317.37,163,316.5Z" transform="translate(117.44 -11.5)"/><path class="cls-7" d="M162.78,316.36a4,4,0,0,0-4,.43l-6.44,3.79a4.89,4.89,0,0,0-2.19,3.85l0,3.23a2.69,2.69,0,0,1-1.19,2.09c-.66.39-1.2.08-1.2-.69l0-3.22a10.23,10.23,0,0,1,4.56-8l6.44-3.78c2.15-1.27,4.18-1.48,5.72-.61l1.88,1.06c1.08.61,2.5.46,4-.43l26-15.26c.66-.39,1.2-.08,1.21.68a2.66,2.66,0,0,1-1.19,2.09l-26,15.27c-2.15,1.26-4.18,1.48-5.72.61Z" transform="translate(117.44 -11.5)"/><path class="cls-6" d="M150.05,325l0,3.23s0,0,0,.06a2.06,2.06,0,0,0,.09-.59l0-3.23c0-.09,0-.19,0-.28A3.9,3.9,0,0,0,150.05,325Z" transform="translate(117.44 -11.5)"/><ellipse class="cls-1" cx="245" cy="250.18" rx="20.39" ry="11.77"/><path class="cls-8" d="M150.75,251.61V245.1h-1.23a15,15,0,0,0-5.57-5.21c-9.06-5.22-23.74-5.22-32.8,0a14.85,14.85,0,0,0-5.56,5.21h-1.23v6.48h0c0,3.43,2.25,6.88,6.79,9.5,9.06,5.23,23.75,5.23,32.8,0C148.48,258.46,150.75,255,150.75,251.61Z" transform="translate(117.44 -11.5)"/><ellipse class="cls-8" cx="245" cy="233.6" rx="23.19" ry="13.39"/><path class="cls-6" d="M144,254.57c-9,5.23-23.74,5.23-32.8,0-4.34-2.51-6.57-5.76-6.75-9-.2,3.57,2,7.18,6.75,9.9,9.06,5.23,23.75,5.23,32.8,0,4.72-2.72,7-6.33,6.76-9.9C150.53,248.81,148.29,252.06,144,254.57Z" transform="translate(117.44 -11.5)"/><path class="cls-6" d="M116.37,249.53a1,1,0,0,1-.61-.85l0-8.73c0-.66.93-1.2,2.09-1.2s2.08.54,2.08,1.21l0,7.23,21-2.57c1.13-.14,2.23.28,2.47.93s-.48,1.29-1.61,1.43l-23.52,2.88a3.48,3.48,0,0,1-1.75-.24Z" transform="translate(117.44 -11.5)"/><polygon class="cls-1" points="125.13 165.99 107.9 156.04 125.13 146.09 142.36 156.04 125.13 165.99"/><polygon class="cls-9" points="142.36 143.41 125.13 153.36 125.13 133.46 142.36 123.52 142.36 143.41"/><polygon class="cls-8" points="125.13 133.46 107.9 123.52 125.13 113.57 142.36 123.52 125.13 133.46"/><polygon class="cls-8" points="125.13 153.36 107.9 143.41 107.9 123.52 125.13 133.46 125.13 153.36"/><polygon class="cls-6" points="118.93 142.61 114.11 139.83 114.11 134.26 118.93 137.04 118.93 142.61"/><polygon class="cls-1" points="17.94 344.36 0 334 17.94 323.65 35.88 334 17.94 344.36"/><polygon class="cls-2" points="35.88 320.86 17.94 331.21 17.94 310.5 35.88 300.14 35.88 320.86"/><polygon class="cls-5" points="17.94 310.5 0 300.14 17.94 289.79 35.88 300.14 17.94 310.5"/><polygon class="cls-7" points="17.94 331.21 0 320.86 0 300.14 17.94 310.5 17.94 331.21"/><polygon class="cls-6" points="11.48 320.02 6.46 317.13 6.46 311.33 11.48 314.23 11.48 320.02"/><path class="cls-1" d="M-34.26,331.69l-66.85-38.59a2.26,2.26,0,0,1,0-3.91l63.56-36.69,71.12,41.06a2.25,2.25,0,0,1,0,3.9l-59.3,34.23A8.5,8.5,0,0,1-34.26,331.69Z" transform="translate(117.44 -11.5)"/><path class="cls-8" d="M-36.19,225.74c0-4.24-3-6-6.66-3.85l-62.52,36a4,4,0,0,0-1.84,3.17c0,1.16.82,1.64,1.83,1.05l62.52-36c1.66-1,3-.17,3,1.74v7c1.21-.07,2.43-.07,3.66-.05Z" transform="translate(117.44 -11.5)"/><path class="cls-9" d="M-105.4,274.71l62.52-22.79a14.75,14.75,0,0,0,6.68-11.54v-5.59c-1.23,0-2.45,0-3.66.05v7.65a6.65,6.65,0,0,1-3,5.21l-62.52,22.78a4,4,0,0,0-1.83,3.17C-107.23,274.82-106.41,275.29-105.4,274.71Z" transform="translate(117.44 -11.5)"/><polygon class="cls-9" points="10.69 263.29 86.74 307.3 151.13 268.9 156.24 261.27 155.71 263.98 154.34 256.9 34.81 261.46 13.75 260.11 10.69 263.29"/><polygon class="cls-10" points="13.21 250.01 13.19 259.37 86.69 301.9 88.68 292.98 13.21 250.01"/><polygon class="cls-8" points="155.29 253.89 79.36 209.96 10.9 249.78 10.76 250.75 86.8 294.75 155.29 253.89"/><path class="cls-6" d="M13.64,288l17.85-10.59a6.69,6.69,0,0,0,2.69-5V271c0-1.13-.47-1.87-1.2-2.08L-2.16,288.45l-28.62,15.48,0,9.47Z" transform="translate(117.44 -11.5)"/><path class="cls-9" d="M-28.21,304.8l-75.45-43.66-1.6-.92-1.46-.85a3.71,3.71,0,0,0-.49,1.71,1.3,1.3,0,0,0,.52,1.17h0l76,44Z" transform="translate(117.44 -11.5)"/><polygon class="cls-6" points="85.79 306.75 86.74 307.3 86.92 307 86.33 306.53 85.79 306.75"/><polygon class="cls-6" points="85.82 294.18 86.79 294.74 86.55 294.21 85.82 294.18"/><path class="cls-8" d="M-29.33,301.9l62.52-36c3.68-2.12,6.67-.39,6.66,3.86v1.4a14.75,14.75,0,0,1-6.68,11.54l-62.52,36c-1,.58-1.83.11-1.83-1.06a4,4,0,0,1,1.84-3.16l62.52-36a6.63,6.63,0,0,0,3-5.2v-1.4c0-1.92-1.34-2.7-3-1.74l-62.52,36c-1,.58-1.83.11-1.83-1.06A4.05,4.05,0,0,1-29.33,301.9Z" transform="translate(117.44 -11.5)"/><path class="cls-6" d="M-31.19,317.64a4,4,0,0,1,1.84-3.16l62.52-36a6.63,6.63,0,0,0,3-5.2v-1.4c0-1.26-.58-2-1.44-2.13a2.51,2.51,0,0,1,.44,1.55v1.4a6.66,6.66,0,0,1-3,5.2l-62.52,36a4,4,0,0,0-1.84,3.16c0,.89.47,1.37,1.14,1.3A1.68,1.68,0,0,1-31.19,317.64Z" transform="translate(117.44 -11.5)"/><path class="cls-6" d="M-31.16,305.07a4.05,4.05,0,0,1,1.83-3.17l62.52-36a5,5,0,0,1,4.18-.7c-1.22-1-3.09-1.08-5.18.12l-62.52,36a4.05,4.05,0,0,0-1.83,3.17c0,.89.47,1.37,1.13,1.3A1.93,1.93,0,0,1-31.16,305.07Z" transform="translate(117.44 -11.5)"/><polygon class="cls-6" points="57.37 254.76 91.86 234.88 121.78 252.19 87.28 272.07 57.37 254.76"/><path class="cls-1" d="M25.23,362.38c13.81,8,36.2,8,50,0s13.81-20.9,0-28.87-36.2-8-50,0S11.42,354.41,25.23,362.38Zm13.51-21.07c6.35-3.66,16.64-3.66,23,0s6.35,9.61,0,13.27-16.64,3.67-23,0S32.39,345,38.74,341.31Z" transform="translate(117.44 -11.5)"/><path class="cls-11" d="M80.46,328.79,67.84,329a13.54,13.54,0,0,0-4-3.35c-6.94-4-17.85-4.31-25.4-.93L31,317.65l-11.54.18c.57-.37,1.15-.74,1.77-1.1,16-9.26,42.05-9.26,58.09,0a30.28,30.28,0,0,1,7.21,5.62Z" transform="translate(117.44 -11.5)"/><polygon class="cls-9" points="136.86 288.01 136.86 306.33 148.4 306.15 148.4 287.83 136.86 288.01"/><polygon class="cls-11" points="155.9 294.88 155.9 313.2 148.4 306.15 148.4 287.83 155.9 294.88"/><path class="cls-11" d="M67.84,310.66V329L51.25,315.46,38.46,324.7V306.38l11.77-5.71s16.22,5,17.06,5.17S67.84,310.66,67.84,310.66Z" transform="translate(117.44 -11.5)"/><polygon class="cls-11" points="197.9 298.97 197.9 317.29 185.28 317.48 185.28 299.17 197.9 298.97"/><polygon class="cls-9" points="203.94 292.54 203.94 310.85 197.9 317.29 197.9 298.97 203.94 292.54"/><path class="cls-8" d="M80.46,310.47l-12.62.19a13.37,13.37,0,0,0-4-3.34c-6.94-4-17.85-4.32-25.4-.94L31,299.33l-11.54.18c.57-.37,1.15-.74,1.77-1.1,16-9.26,42.05-9.26,58.09,0A30.3,30.3,0,0,1,86.49,304Z" transform="translate(117.44 -11.5)"/><path class="cls-7" d="M34.66,308.63v16.84l-10.92-2.61s.64-9.86.87-10.12S34.66,308.63,34.66,308.63Z" transform="translate(117.44 -11.5)"/><path class="cls-2" d="M42.92,325.47v18.32l-1.18,1.26L34,340.61s1.2-14,1.34-14.26S42.92,325.47,42.92,325.47Z" transform="translate(117.44 -11.5)"/><path class="cls-3" d="M28.06,320.74l6.6,6.21c-5.5,4.35-4.85,10.49,2,14.41a23.13,23.13,0,0,0,6.31,2.43l-6.82,7.27,6,5.69a55.12,55.12,0,0,1-20.95-6.48c-13.79-8-15.71-20.17-5.79-29.33Z" transform="translate(117.44 -11.5)"/><polygon class="cls-3" points="159.59 326.93 159.59 345.25 144.62 339.47 126.61 322.29 126.68 302.84 145.73 317.94 159.59 326.93"/><path class="cls-5" d="M28.06,302.43l6.6,6.2c-5.5,4.35-4.85,10.49,2,14.42a23.44,23.44,0,0,0,6.31,2.42l-6.82,7.27,6,5.69A55.12,55.12,0,0,1,21.19,332C7.4,324,5.48,311.78,15.4,302.62Z" transform="translate(117.44 -11.5)"/><path class="cls-3" d="M42.19,351l6-6.41c5.59.34,11.38-.73,15.66-3.2s6.24-6,5.46-9.35l14.32-.22,5.51-5.87c4.82,8.27,1.53,17.76-9.87,24.35-8.39,4.83-19.49,7.14-30.47,6.92Z" transform="translate(117.44 -11.5)"/><polygon class="cls-3" points="166.25 327.37 166.25 345.69 208.74 322.15 208.74 303.82 202.54 306.33 166.25 327.37"/><polygon class="cls-2" points="159.63 321.15 159.63 339.47 166.25 345.69 166.25 327.37 159.63 321.15"/><path class="cls-7" d="M42.19,332.65l6-6.41c5.59.34,11.38-.72,15.66-3.19s6.24-6,5.46-9.36l14.32-.22,5.51-5.87c4.82,8.27,1.53,17.76-9.87,24.35-8.39,4.84-19.49,7.14-30.47,6.92Z" transform="translate(117.44 -11.5)"/><path class="cls-5" d="M184.85,131.42l-8.1,2.46-7.68,2.32-1.5.46a15.54,15.54,0,0,1-13.19-2.36c-2,2.52-6,3.35-9.58,1.78-4.21-1.81-6.39-6.16-4.85-9.72,1.31-3,4.92-4.52,8.56-3.74a10.43,10.43,0,0,1,7.71-8.75l.58-.18,3.58,7.18-.59.17a3.87,3.87,0,0,0-2.42,5.6,5.73,5.73,0,0,0,6.62,2.85l1.51-.46,7.67-2.33,8.11-2.46Zm-3.56,14.29a15.6,15.6,0,0,1-11.51-8.1l-.27-.56,7.67-2.33.26.56a5.8,5.8,0,0,0,6.62,2.85,3.84,3.84,0,0,0,2.4-5.58l-.71-1.41L182.19,124l-3.78-7.58,7.68-2.33,3.76,7.58,3.57,7.18.71,1.41a10.38,10.38,0,0,1-1,11.51c3.51,2,5.21,5.95,3.81,9.2-1.55,3.58-6.2,5-10.4,3.15-3.67-1.58-5.82-5.12-5.23-8.35Zm-15-34.89,8.12-2.45,7.68-2.33,1.5-.45a15.49,15.49,0,0,1,13.65,2.71c1.86-2.91,6.1-4,9.95-2.3,4.21,1.81,6.38,6.16,4.85,9.72-1.41,3.27-5.46,4.72-9.38,3.53a10.38,10.38,0,0,1-7.73,9.11l-.59.18-3.58-7.17.6-.18a3.84,3.84,0,0,0,2.4-5.58,5.75,5.75,0,0,0-6.6-2.84l-1.5.45L178,115.54,169.87,118Zm-8.59,2.59L157,112a10.39,10.39,0,0,1,1.41-12c-3.11-2.12-4.55-5.77-3.22-8.84,1.53-3.55,6.19-5,10.39-3.15,3.79,1.64,5.93,5.33,5.2,8.65a15.51,15.51,0,0,1,10.6,7.93l.28.56L174,107.52l-.28-.55a5.8,5.8,0,0,0-6.61-2.86,3.86,3.86,0,0,0-2.42,5.59l.7,1.41,3.58,7.18,3.78,7.59-7.67,2.33-3.8-7.6-3.58-7.18Z" transform="translate(117.44 -11.5)"/></svg>