<?xml version="1.0" encoding="utf-8"?>
<!-- Generator: Adobe Illustrator 25.1.0, SVG Export Plug-In . SVG Version: 6.00 Build 0)  -->
<svg version="1.1" id="Ñëîé_1" xmlns="http://www.w3.org/2000/svg" xmlns:xlink="http://www.w3.org/1999/xlink" x="0px" y="0px"
	 viewBox="0 0 322.1 300.7" style="enable-background:new 0 0 322.1 300.7;" xml:space="preserve">
<style type="text/css">
	.st0{opacity:0.5;fill:#C4D9E8;enable-background:new    ;}
	.st1{fill:#6614CF;}
	.st2{fill:#173D7A;}
	.st3{fill:#FDD762;}
	.st4{fill:#FFC2B0;}
	.st5{fill:#8A2AE3;}
	.st6{fill:#983BE9;}
	.st7{fill:#FFFFFF;}
	.st8{fill:#EA9C92;}
	.st9{fill:#B45EF4;}
	.st10{fill:#D8892B;}
	.st11{fill:#396CAA;}
	.st12{fill:#D4ECFF;}
	.st13{fill:#5793CE;}
	.st14{fill:#FAFDFF;}
	.st15{fill:#721BD5;}
	.st16{fill:#7E23DC;}
	.st17{fill:#FF2C9C;}
	.st18{fill:url(#SVGID_1_);}
	.st19{fill:#EAEAEA;}
	.st20{fill:#E8A200;}
	.st21{fill:#274F89;}
</style>
<path class="st0" d="M115.6,210.7c-9.1,5.2-23.8,5.2-32.9,0s-9.1-13.7,0-19s23.8-5.2,32.9,0S124.7,205.4,115.6,210.7z"/>
<ellipse class="st0" cx="288.4" cy="272.1" rx="32.7" ry="18.9"/>
<path class="st1" d="M85.8,36.3c0,0,0.6,12.5,1.6,20.9s21.2-6.5,21.2-6.5v-9.6L85.8,36.3z"/>
<path class="st2" d="M96.6,191.8c0.3,0.8,5.5,7.1,10.8,8.7c1.5,0.5,3.2,0.8,4.8,0.7c0.9-0.1,1.5-0.9,1.4-1.8c0-0.1,0-0.2-0.1-0.3
	c-1.8-4.9-5.4-8.8-10-11.1C94.6,183.6,96.6,191.8,96.6,191.8z"/>
<path class="st2" d="M94.9,194.2c1.2,2.7,2,5.6,2.6,8.5c0.4,2.4-0.9,5.4-2,7.5c-0.6,1.1-1.9,1.5-3,0.9c-0.2-0.1-0.3-0.2-0.4-0.3
	c-2.4-2.1-3.9-5-4.2-8.1c-0.6-6.5,0-7.7,0-7.7L94.9,194.2z"/>
<path class="st3" d="M82.2,115.3c-0.4,5.8-0.4,11.6,0,17.3c0.7,9.1,3.1,51.7,3.6,62c0,0-0.2,3.1,5.8,2.4s5.5-4.1,5.5-4.1
	s8.4-0.1,8.7-5.1s8.6-59.4,8.6-79L82.2,115.3z"/>
<path class="st4" d="M117.6,72.7l4.1,6.4L136,96.2c-0.4,1-1.2,1.7-2.2,2c-1.4,0.3-13.3-11.1-18.5-16.1c-1.3-1.3-1.6-3.4-0.5-5
	L117.6,72.7z"/>
<path class="st5" d="M109.5,46.4c0,0,6.6-0.2,8.8,9.3s4.1,21.4,2.1,22.4c-6,3-9.8-0.5-9.8-0.5L109.5,46.4z"/>
<path class="st6" d="M111.5,46.8c-1.1-0.5-2.4-0.5-3.5-0.2c-5.6,1.6-26.6,7.8-30.1,10.8c-4,3.4,6,22.7,5.9,29s-0.9,13.8-1.4,20.6
	s-1.3,10.6,4.3,13.5s15.2,3.1,22.4-2.4s5.9-9.2,5.6-13.2s-2.7-21.1-2.5-26c1.8-1.4,3.3-3.1,4.4-5c1.9-3.2-1.4-9.1-2.8-12.9
	s0.8-8.2,0.3-11.3C113.8,48.3,112.8,47.2,111.5,46.8z"/>
<ellipse transform="matrix(0.9919 -0.1271 0.1271 0.9919 -6.1193 12.7497)" class="st7" cx="96.9" cy="54.3" rx="8" ry="6.3"/>
<path class="st4" d="M102.5,53.6c0.3,2.5-2,4.8-5.1,5.2s-5.9-1.3-6.2-3.8s2-4.8,5.1-5.2S102.2,51.1,102.5,53.6z"/>
<path class="st4" d="M99.4,45.5c0,0-3.8-3.1-4.5-1.5s-1.4,8.4-1.4,8.4l7.6,2l-1.2-6.9C99.9,47.4,101.4,46.2,99.4,45.5z"/>
<circle class="st4" cx="100" cy="37.4" r="11.3"/>
<path class="st8" d="M94.4,45.9c-0.1,0.3-0.1,0.7-0.2,1.1c0.8,3.9,6.6,5.6,6.6,5.6l-0.9-5.2c0,0,0.7-0.6,0.5-1.2
	C98.1,45.5,95.2,44.9,94.4,45.9z"/>
<circle class="st4" cx="100" cy="37.4" r="11.3"/>
<polygon class="st4" points="72.2,85.1 73.5,115.2 77.9,115.7 80.8,88.5 "/>
<path class="st5" d="M86.7,82.5c-1.5-6.4-4.3-20.7-4.3-20.7L81.1,76c1.4,4.2,2.6,8.1,2.6,10.3c-0.1,3.7-0.4,7.8-0.7,11.9l0,0
	C83,98.2,88.2,89,86.7,82.5z"/>
<path class="st9" d="M78.7,56.7c0,0-3.5,1.3-5.5,12.2s-3.5,21.7,0.1,23.1s6.6,2.5,7.6-0.4s1.7-16.8,1.8-21.9S83,57.7,78.7,56.7z"/>
<path class="st4" d="M134.9,95c1.2,0.5,2.4,1.2,3.3,2.2c0.8,0.9,1.6,1.9,2.2,3c1.1,1.6,2,5.2,1.4,5.6s-4.5-5.9-5.1-4.4
	s0,2.8-0.8,2.9s-3.5-6.4-5.7-8.4S134.9,95,134.9,95z"/>
<path class="st10" d="M97.1,192.9c0.8,0,1.6-0.1,2.4-0.2l0,0l1.7-66.2L97.1,192.9z"/>
<path class="st4" d="M73.5,114.9c0,0-1.2,7-1,9.3s1.4,6,2.3,5.9s0-9.1,1.6-8.2s1.8,2.4,2.5,1.9s-1.3-8.2-0.7-11.6
	S73.5,114.9,73.5,114.9z"/>
<path class="st8" d="M104.3,38.4c5.7,2,6.8,0.8,6.8,0.7c0-0.3,0.1-0.7,0.1-1c0.1-1.2-0.1-2.4-0.4-3.6l-14.7-2
	C98.2,35.3,101,37.3,104.3,38.4z"/>
<path class="st1" d="M111.6,26.8c-1.3-1.1-6.1-6.8-14.7-5.5C91.5,22.2,87,25.8,86,34.2c-0.6,5.6,1.3,11.2,5.2,15.3
	c0.2-0.1,0.4-0.2,0.6-0.3c2.2-1.4,2.4-2.2,2.4-2.2l0.5-4.3c0-0.6-0.5-1.1-1.1-1.2c-0.7-0.1-1.2-0.4-1.6-1c-1.2-1.6-0.7-4.1,1.8-4.2
	c0.9,0.1,1.8-0.5,2-1.4c0.1-0.5,0.7-0.9,1.2-0.7c0,0,0.1,0,0.1,0c2.8,1,9.8,3.2,14.2,2C117,34.6,113,28,111.6,26.8z"/>
<path class="st7" d="M105.2,43.4l3.4-1c-1,1.5-2.4,2.6-4,3.2c-2.4,0.7-2.8-1.4-2.8-1.4L105.2,43.4z"/>
<path class="st0" d="M211.1,281.9l-78-44.5c-2.9-1.6-2.5-4.5,0.8-6.4l44.9-25.9c3.3-1.9,8.3-2.1,11.1-0.5l78,44.5
	c2.9,1.6,2.5,4.5-0.8,6.4l-44.9,25.9C218.9,283.4,213.9,283.6,211.1,281.9z"/>
<path class="st11" d="M274.8,234.2L274.8,234.2V52.1l-72.4-19l-13.3-7.7c-3.1-1.8-8.4-1.5-11.9,0.5l-12.4,7.2h-38.6l11.4,175.8
	c0,1.4,0.8,2.6,2.1,3.2l72.2,54.5c3.1,1.8,8.4,1.5,11.9-0.5l48.1-27.8C274,237.1,275,235.6,274.8,234.2z"/>
<path class="st12" d="M183.6,24.3c-2.2,0-4.4,0.6-6.4,1.7l-12.4,7.2h-38.6v182.5c0,1.4,0.8,2.6,2,3.2l83.7,47.7
	c1.7,0.9,3.6,1.3,5.5,1.2l0.9-183.7L183.6,24.3z"/>
<path class="st13" d="M212.6,267c3.1,1.1,6.5,1.1,9.5-0.1v-185h-9.5V267z"/>
<path class="st12" d="M211.9,84.1l-83.7-47.7c-3.1-1.8-2.7-4.8,0.9-6.9l48.1-27.8c3.5-2,8.9-2.3,11.9-0.5l83.7,47.7
	c3,1.8,2.7,4.8-0.9,6.9l-48.1,27.8C220.3,85.6,214.9,85.8,211.9,84.1z"/>
<path class="st14" d="M271.9,52.4l-48.1,27.8c-3.5,2-8.9,2.3-11.9,0.5L128.2,33c-0.6-0.3-1.1-0.8-1.5-1.4c-1,1.7-0.6,3.5,1.5,4.7
	l83.7,47.7c3.1,1.8,8.4,1.5,11.9-0.5l48.1-27.8c2.7-1.6,3.6-3.8,2.4-5.5C273.7,51.1,272.9,51.9,271.9,52.4z"/>
<path class="st2" d="M214.2,64.8l-55.7-32.3c-1.4-0.8-1.3-2.3,0.4-3.2l22.5-13c1.7-1,3.8-1,5.6-0.2l55.8,32.2
	c1.4,0.8,1.2,2.3-0.4,3.2l-22.6,13C218.1,65.5,216,65.6,214.2,64.8z"/>
<path class="st12" d="M184.2,33.9l-3.2-1.9c-0.2-0.1-0.2-0.3,0.1-0.4l3.1-1.8c0.2-0.1,0.5-0.1,0.8,0l3.2,1.9
	c0.2,0.1,0.2,0.3-0.1,0.4l-3.1,1.8C184.7,34,184.4,34,184.2,33.9z"/>
<path class="st12" d="M194.9,40.1l-3.2-1.9c-0.2-0.1-0.2-0.3,0.1-0.4l3.1-1.8c0.2-0.1,0.5-0.1,0.8,0l3.2,1.9
	c0.2,0.1,0.2,0.3-0.1,0.4l-3.1,1.8C195.5,40.2,195.2,40.2,194.9,40.1z"/>
<path class="st12" d="M205.7,46.3l-3.2-1.9c-0.2-0.1-0.2-0.3,0-0.4l3.1-1.8c0.2-0.1,0.5-0.1,0.8,0l3.2,1.9c0.2,0.1,0.2,0.3-0.1,0.4
	l-3.1,1.8C206.2,46.4,206,46.4,205.7,46.3z"/>
<path class="st12" d="M216.5,52.5l-3.2-1.9c-0.2-0.1-0.2-0.3,0-0.4l3.1-1.8c0.2-0.1,0.5-0.1,0.8,0l3.2,1.9c0.2,0.1,0.2,0.3,0,0.4
	l-3.1,1.8C217.1,52.6,216.8,52.6,216.5,52.5z"/>
<path class="st13" d="M158.5,32.4L158.5,32.4l0.4-0.2l22.5-13c1.7-1,3.8-1,5.6-0.2l55.6,32.3c1.3-1,1.4-2.2,0.1-3L187.1,16
	c-1.8-0.8-3.9-0.7-5.6,0.2l-22.5,13C157.3,30.2,157.1,31.6,158.5,32.4z"/>
<path class="st13" d="M202.6,120.1l-61.8-35.7c-2-1.4-3.2-3.7-3.2-6.2V67c0-2.4,1.4-3.5,3.2-2.4l61.8,35.7c2,1.4,3.2,3.7,3.2,6.2
	v11.3C205.9,120.1,204.4,121.2,202.6,120.1z"/>
<path class="st2" d="M197.9,110.1l-2.9-1.7c-0.4-0.3-0.7-0.8-0.7-1.3V104c0-0.5,0.3-0.8,0.7-0.5l2.9,1.7c0.4,0.3,0.7,0.8,0.7,1.3
	v3.1C198.7,110.1,198.3,110.4,197.9,110.1z"/>
<path class="st2" d="M188.2,104.5l-2.9-1.7c-0.4-0.3-0.7-0.8-0.7-1.3v-3.1c0-0.5,0.3-0.8,0.7-0.5l2.9,1.7c0.4,0.3,0.7,0.8,0.7,1.3
	v3.1C188.9,104.5,188.6,104.8,188.2,104.5z"/>
<path class="st13" d="M202.6,161.1l-61.8-35.7c-2-1.4-3.2-3.7-3.2-6.2v-11.3c0-2.4,1.4-3.5,3.2-2.4l61.8,35.7c2,1.4,3.2,3.7,3.2,6.2
	v11.3C205.9,161,204.4,162.1,202.6,161.1z"/>
<path class="st2" d="M197.9,151.1l-2.9-1.7c-0.4-0.3-0.7-0.8-0.7-1.3v-3.1c0-0.5,0.3-0.8,0.7-0.5l2.9,1.7c0.4,0.3,0.7,0.8,0.7,1.3
	v3.1C198.7,151.1,198.3,151.3,197.9,151.1z"/>
<path class="st12" d="M188.2,145.4l-2.9-1.7c-0.4-0.3-0.7-0.8-0.7-1.3v-3.1c0-0.5,0.3-0.8,0.7-0.5l2.9,1.7c0.4,0.3,0.7,0.8,0.7,1.4
	v3.1C188.9,145.4,188.6,145.7,188.2,145.4z"/>
<path class="st13" d="M202.6,202l-61.8-35.7c-2-1.4-3.2-3.7-3.2-6.2v-11.4c0-2.4,1.4-3.5,3.2-2.4l61.8,35.7c2,1.4,3.2,3.7,3.2,6.2
	v11.3C205.9,201.9,204.4,203,202.6,202z"/>
<path class="st12" d="M197.9,192l-2.9-1.7c-0.4-0.3-0.7-0.8-0.7-1.3v-3.1c0-0.5,0.3-0.8,0.7-0.5l2.9,1.7c0.4,0.3,0.7,0.8,0.7,1.3
	v3.1C198.7,192,198.3,192.2,197.9,192z"/>
<path class="st2" d="M188.2,186.4l-2.9-1.7c-0.4-0.3-0.7-0.8-0.7-1.3v-3.1c0-0.5,0.3-0.8,0.7-0.5l2.9,1.7c0.4,0.3,0.7,0.8,0.7,1.4
	v3.1C188.9,186.4,188.6,186.6,188.2,186.4z"/>
<path class="st13" d="M202.6,242.9l-61.8-35.7c-2-1.4-3.2-3.7-3.2-6.2v-11.3c0-2.4,1.4-3.5,3.2-2.4l61.8,35.7c2,1.4,3.2,3.7,3.2,6.2
	v11.3C205.9,242.9,204.4,243.9,202.6,242.9z"/>
<path class="st12" d="M197.9,232.9l-2.9-1.7c-0.4-0.3-0.7-0.8-0.7-1.3v-3.1c0-0.5,0.3-0.8,0.7-0.5l2.9,1.7c0.4,0.3,0.7,0.8,0.7,1.4
	v3.1C198.7,232.9,198.3,233.1,197.9,232.9z"/>
<path class="st12" d="M188.2,227.3l-2.9-1.7c-0.4-0.3-0.7-0.8-0.7-1.3v-3.1c0-0.5,0.3-0.8,0.7-0.5l2.9,1.7c0.4,0.3,0.7,0.8,0.7,1.4
	v3.1C188.9,227.3,188.6,227.5,188.2,227.3z"/>
<path class="st2" d="M233.2,120.1l31.7-18.1c2-1.4,3.2-3.7,3.2-6.2V84.5c0-2.4-1.5-3.5-3.2-2.4l-31.7,18.1c-2,1.4-3.2,3.7-3.2,6.2
	v11.3C230,120.1,231.4,121.2,233.2,120.1z"/>
<path class="st2" d="M233.2,161.1l31.7-18.1c2-1.4,3.2-3.7,3.2-6.2v-11.3c0-2.4-1.5-3.5-3.2-2.4l-31.7,18.1c-2,1.4-3.2,3.7-3.2,6.2
	v11.3C230,161,231.4,162.1,233.2,161.1z"/>
<path class="st2" d="M233.2,202l31.7-18.1c2-1.4,3.2-3.7,3.2-6.2v-11.3c0-2.4-1.5-3.5-3.2-2.4l-31.7,18.1c-2,1.4-3.2,3.7-3.2,6.2
	v11.3C230,201.9,231.4,203,233.2,202z"/>
<path class="st2" d="M233.2,242.9l31.7-18.1c2-1.4,3.2-3.7,3.2-6.2v-11.3c0-2.4-1.5-3.5-3.2-2.4L233.2,223c-2,1.4-3.2,3.7-3.2,6.2
	v11.3C230,242.9,231.4,243.9,233.2,242.9z"/>
<path class="st0" d="M32.2,273.4L7.3,259c-1.5-0.9-1.3-2.4,0.4-3.5l24.1-13.9c1.8-1,4.1-1.1,6-0.2l24.9,14.4
	c1.5,0.9,1.3,2.4-0.4,3.5l-24.1,13.9C36.4,274.2,34.1,274.3,32.2,273.4z"/>
<path class="st15" d="M71,244.8L71,244.8v-10.8H46.8l-8.4-4.8c-1.9-1.1-5.3-1-7.5,0.3l-7.8,4.5H-1v11.1c0,0.9,0.5,1.6,1.3,2l31.2,18
	c2.4,1.1,5.2,0.9,7.5-0.3l30.2-17.4C70.2,246.9,70.9,246,71,244.8z"/>
<path class="st6" d="M35,228.5c-1.4,0-2.8,0.4-4,1.1l-7.8,4.5H-1v11.1c0,0.9,0.5,1.6,1.3,2l31.2,18c1.1,0.6,2.3,0.8,3.5,0.7
	L35,228.5z"/>
<path class="st9" d="M1.8,234H-1v11.1c0,0.9,0.5,1.6,1.3,2l1.5,0.8L1.8,234z"/>
<path class="st16" d="M32,265.4c1.9,0.7,4.1,0.7,6-0.1v-12.6h-6V265.4z"/>
<path class="st5" d="M31.5,254.1l-31.2-18c-1.9-1.1-1.7-3,0.5-4.3L31,214.4c2.2-1.3,5.6-1.4,7.5-0.3l31.2,18c1.9,1.1,1.7,3-0.5,4.3
	L39,253.8C36.7,255.1,33.9,255.2,31.5,254.1z"/>
<path class="st1" d="M32.1,250.9L5.9,235.8c-1.6-0.9-1.4-2.6,0.5-3.6l25.3-14.6c1.9-1.1,4.2-1.2,6.3-0.3l26.2,15.1
	c1.6,0.9,1.4,2.6-0.5,3.6l-25.3,14.6C36.4,251.7,34.1,251.8,32.1,250.9z"/>
<path class="st17" d="M59.5,247.7c0,0.9-0.5,1.7-1.3,2.2c-0.7,0.4-1.3,0.1-1.3-0.7c0-0.9,0.5-1.7,1.3-2.2
	C58.9,246.6,59.5,246.9,59.5,247.7z"/>
<path class="st17" d="M63.5,245.3c0,0.9-0.5,1.7-1.3,2.2c-0.7,0.4-1.3,0.1-1.3-0.7c0-0.9,0.5-1.7,1.3-2.2
	C63,244.2,63.5,244.5,63.5,245.3z"/>
<path class="st17" d="M67.6,243c-0.1,0.9-0.5,1.7-1.3,2.2c-0.7,0.4-1.3,0.1-1.3-0.7c0-0.9,0.5-1.7,1.3-2.2
	C67,241.9,67.6,242.2,67.6,243z"/>
<path class="st15" d="M71,227.4L71,227.4v-10.8H46.8l-8.3-4.8c-1.9-1.1-5.3-1-7.5,0.3l-7.8,4.5H-1v11.1c0,0.9,0.5,1.6,1.3,2l31.2,18
	c2.4,1.1,5.2,1,7.5-0.3l30.2-17.4C70.4,229.2,71.1,228.2,71,227.4z"/>
<path class="st6" d="M35,211c-1.4,0-2.8,0.4-4,1.1l-7.8,4.5H-1v11.1c0,0.9,0.5,1.6,1.3,2l31.2,18c1.1,0.5,2.3,0.8,3.5,0.7L35,211z"
	/>
<path class="st9" d="M1.8,216.5H-1v11.1c0,0.9,0.5,1.6,1.3,2l1.5,0.8L1.8,216.5z"/>
<path class="st16" d="M32,247.9c1.9,0.7,4.1,0.7,6-0.1v-12.6h-6V247.9z"/>
<path class="st5" d="M31.5,236.6l-31.2-18c-1.9-1.1-1.7-3,0.5-4.3L31,196.9c2.2-1.3,5.6-1.4,7.5-0.3l31.2,18c1.9,1.1,1.7,3-0.5,4.3
	L39,236.3C36.7,237.6,33.9,237.7,31.5,236.6z"/>
<path class="st1" d="M32.1,233.4L5.9,218.3c-1.6-0.9-1.4-2.6,0.5-3.6l25.3-14.6c1.9-1.1,4.2-1.2,6.3-0.3l26.2,15.1
	c1.6,0.9,1.4,2.6-0.5,3.6l-25.3,14.6C36.4,234.2,34.1,234.3,32.1,233.4z"/>
<path class="st17" d="M59.5,230.2c0,0.9-0.5,1.7-1.3,2.2c-0.7,0.4-1.3,0.1-1.3-0.7c0-0.9,0.5-1.7,1.3-2.2
	C58.9,229.1,59.5,229.4,59.5,230.2z"/>
<path class="st17" d="M63.5,227.9c0,0.9-0.5,1.7-1.3,2.2c-0.7,0.4-1.3,0.1-1.3-0.7c0-0.9,0.5-1.7,1.3-2.2
	C63,226.8,63.5,227.1,63.5,227.9z"/>
<ellipse transform="matrix(0.5 -0.866 0.866 0.5 -162.7442 170.5741)" class="st17" cx="66.3" cy="226.2" rx="1.8" ry="1"/>
<path class="st15" d="M71,209.9L71,209.9v-10.8H46.8l-8.4-4.8c-1.9-1.1-5.3-1-7.5,0.3l-7.8,4.5H-1v11.1c0,0.9,0.5,1.6,1.3,2l31.2,18
	c2.4,1.1,5.2,1,7.5-0.3l30.2-17.4C70.4,211.7,71.1,210.8,71,209.9z"/>
<path class="st6" d="M35,193.5c-1.4,0-2.8,0.4-4,1.1l-7.8,4.5H-1v11.1c0,0.9,0.5,1.6,1.3,2l31.2,18c1.1,0.5,2.3,0.8,3.5,0.7
	L35,193.5z"/>
<path class="st9" d="M1.8,199.1H-1v11.1c0,0.9,0.5,1.6,1.3,2l1.5,0.8L1.8,199.1z"/>
<path class="st16" d="M32,230.4c1.9,0.7,4.1,0.7,6-0.1v-12.6h-6V230.4z"/>
<path class="st5" d="M31.5,219.1l-31.2-18c-1.9-1.1-1.7-3,0.5-4.3L31,179.4c2.3-1.3,5.1-1.4,7.5-0.3l31.2,18c1.9,1.1,1.7,3-0.5,4.3
	L39,218.8C36.7,220.1,33.9,220.2,31.5,219.1z"/>
<path class="st9" d="M69.2,199.3L39,216.7c-2.3,1.3-5.1,1.4-7.5,0.3L0.3,199c-0.4-0.2-0.7-0.5-1-0.9c-0.7,1.1-0.4,2.2,1,3l31.2,18
	c2.4,1.1,5.2,1,7.5-0.3l30.2-17.4c1.7-1,2.2-2.4,1.5-3.5C70.3,198.5,69.8,199,69.2,199.3z"/>
<path class="st17" d="M59.5,212.7c0,0.9-0.5,1.7-1.3,2.2c-0.7,0.4-1.3,0.1-1.3-0.7c0-0.9,0.5-1.7,1.3-2.2
	C58.9,211.6,59.5,211.9,59.5,212.7z"/>
<path class="st17" d="M63.5,210.4c0,0.9-0.5,1.7-1.3,2.2c-0.7,0.4-1.3,0.1-1.3-0.7c0-0.9,0.5-1.7,1.3-2.2
	C63,209.2,63.5,209.6,63.5,210.4z"/>
<path class="st17" d="M67.6,208c-0.1,0.9-0.5,1.7-1.3,2.2c-0.7,0.4-1.3,0.1-1.3-0.7c0-0.9,0.5-1.7,1.3-2.2
	C67,206.9,67.6,207.2,67.6,208z"/>
<path class="st1" d="M33.4,208.4L18.8,200c-0.9-0.5-0.8-1.4,0.2-2l14.1-8.1c1.1-0.6,2.4-0.7,3.5-0.1l14.6,8.4c0.9,0.5,0.8,1.4-0.2,2
	l-14.1,8.1C35.8,208.9,34.5,209,33.4,208.4z"/>
<path class="st17" d="M34.8,201.4l-2-1.2c-0.1-0.1-0.1-0.2,0-0.3l2-1.1c0.2-0.1,0.3-0.1,0.5,0l2,1.2c0.1,0.1,0.1,0.2,0,0.3l-2,1.1
	C35.1,201.5,35,201.5,34.8,201.4z"/>
<path class="st1" d="M43.7,210.6l-2-1.2c-0.1-0.1-0.1-0.2,0-0.3l2-1.1c0.2-0.1,0.3-0.1,0.5,0l2,1.2c0.1,0.1,0.1,0.2,0,0.3l-2,1.1
	C44.1,210.7,43.9,210.7,43.7,210.6z"/>
<path class="st1" d="M48.1,208.1l-2-1.2c-0.1-0.1-0.1-0.2,0-0.3l2-1.1c0.1-0.1,0.3-0.1,0.5,0l2,1.2c0.1,0.1,0.1,0.2,0,0.3l-2,1.1
	C48.5,208.1,48.3,208.1,48.1,208.1z"/>
<path class="st9" d="M52.6,205.5l-2-1.2c-0.1-0.1-0.1-0.2,0-0.3l2-1.1c0.2-0.1,0.3-0.1,0.5,0l2,1.2c0.1,0.1,0.1,0.2,0,0.3l-2,1.1
	C52.9,205.6,52.7,205.6,52.6,205.5z"/>
<path class="st9" d="M18.8,200L18.8,200l0.2-0.1l14.1-8.1c1.1-0.6,2.4-0.7,3.5-0.1l14.6,8.4c0.8-0.6,0.9-1.4,0-1.9l-14.6-8.4
	c-1.1-0.5-2.4-0.5-3.5,0.1L19,198C18,198.6,17.9,199.5,18.8,200z"/>
<path class="st1" d="M22.2,238.9l-12.6-7.3c-0.9-0.6-1.4-1.6-1.4-2.7l0,0c0-1,0.6-1.5,1.4-1.1l12.6,7.3c0.9,0.6,1.4,1.6,1.4,2.7l0,0
	C23.6,238.9,23,239.3,22.2,238.9z"/>
<path class="st9" d="M23.3,238.2l-12.6-7.3c-0.9-0.6-1.4-1.6-1.4-2.7c0-0.2,0-0.3,0-0.5c-0.7-0.2-1.2,0.2-1.2,1.2
	c0,1.1,0.5,2.1,1.4,2.7l12.6,7.3c0.4,0.3,0.9,0.2,1.2-0.1c0.1-0.1,0.2-0.3,0.2-0.5C23.5,238.3,23.4,238.2,23.3,238.2z"/>
<path class="st2" d="M307,262.5c2.3,1.1,3.7,3.5,3.4,6.1c0,1-0.2,2-0.5,3c-0.7,1.5-3,3.5-6.7,2s-11.9-9.1-12.2-14.2
	C290.5,250,301.2,260,307,262.5z"/>
<path class="st2" d="M285.4,278c0,0,0.9,5.4,0.5,6.4s-3,3.1-6.8,2.6s-14.7-4.2-17.1-11.4c-3.8-11.1,21.1,0.8,21.1,0.8L285.4,278z"/>
<path class="st3" d="M274.7,191.7l-0.9,84.2c0,2.8,1.9,5.2,4.6,5.8c0.3,0,0.7,0.1,1,0.1c1.9,0.3,3.8-0.5,5-2.1
	c0.7-1,1.1-2.2,1.1-3.4l1.1-35.9l5.4-32.1l7.4,56.9c0.1,1.5,0.8,2.9,2,3.7c1,0.7,2.2,1,3.4,0.9c1.7-0.1,3.4-0.9,4.5-2.2
	c0.7-0.8,1.1-1.9,1.1-3l-3-34.2l-1-43.7L274.7,191.7z"/>
<path class="st4" d="M309.9,164.1c-0.2,0-0.3,0-0.5,0L296,162c-1.7-0.3-2.8-1.8-2.5-3.5s1.8-2.8,3.5-2.5l0,0l9.3,1.4l-3.2-18.1
	c-0.3-1.7,0.8-3.2,2.5-3.5s3.2,0.8,3.5,2.5l3.9,22.3c0.3,1.6-0.8,3.2-2.4,3.5C310.3,164.1,310.1,164.1,309.9,164.1L309.9,164.1z"/>
<path class="st6" d="M297.6,121c0,0,4.5-0.3,10.3,11.7s-2.1,15.7-2.1,15.7L297.6,121z"/>
<path class="st6" d="M285.3,124.1c0.2-0.1,12.4-7.9,16.9,0.3c7.4,13.4,6.9,56.6,4.6,62.1c-2.1,5.2-7.5,9-11.3,11.1
	c-3.3,1.9-7.1,3-10.9,3.1c-3.8,0-11.1-3.4-10.9-8.3c1.2-22.9-0.8-42.2-2.7-61C271,131.5,273.4,129,285.3,124.1z"/>
<path class="st4" d="M266,170.9c0.3,0,0.7-0.1,1-0.3c0.9-0.5,1.6-1.4,1.7-2.4l5.8-16.9c0.3-1.8-2.8-8.6-4.4-8.9s-5.5,2.8-5.8,4.6
	l-1.4,15.1l-14.3-7c-1.5-0.8-2.7-2.4-3.6-0.9c-0.9,1.5-0.5,3.4,0.8,4.4l18.4,11.7C264.8,170.8,265.4,171,266,170.9z"/>
<path class="st4" d="M247.6,154.6l-0.9-2.2c-0.3-0.8-0.8-1.5-1.5-2.1l-3.8-3.5c-0.3-0.3-0.8-0.2-1,0.1c0,0,0,0,0,0l0,0
	c-0.2,0.3-0.2,0.7,0.1,0.9l1.6,1.7c0.2,0.3,0.3,0.7,0.2,1l-0.6,1.7c-0.2,0.6-0.1,1.2,0.3,1.6l3.8,4.6L247.6,154.6z"/>
<path class="st6" d="M271,131.5c0,0-8.1,6.3-9.4,25.4c0,0-0.2,2.1,4.5,3.4c2.9,0.7,5.9-0.2,7.9-2.4
	C277.2,149.1,276.1,139.3,271,131.5z"/>
<path class="st4" d="M286.4,116.8l1.3,7.7c-0.1,1.7-1.2,3-2.9,3.4c-2.9,0.7-3.8-1.2-3.8-1.2l-1.3-8.7L286.4,116.8z"/>
<ellipse transform="matrix(0.8945 -0.4471 0.4471 0.8945 -20.4449 137.2169)" class="st4" cx="280.5" cy="111.9" rx="11.1" ry="12.5"/>
<path class="st2" d="M278.5,115.9c-0.5,0.1-0.9-0.1-1.2-0.4c-0.6-0.6-0.8-3.7-2.3-3.9c-2.3-0.4-7.1,3.2-9-4.6
	c-1-4.1,0.8-5.5,0.4-7.8c0,0,0,1.2,10.5-1.4s15.6,6.3,16.6,10.7s0.1,12.2-7,14.5c-1.2,0.4-6.9-2.8-6.9-3.4s2-0.9,1.4-2.4
	C280.7,116.2,279.6,115.6,278.5,115.9C278.5,115.9,278.5,115.9,278.5,115.9z"/>
<path class="st10" d="M292.1,208.3l7.4,56.9c0.1,1.5,0.8,2.9,2,3.7c0.2,0.1,0.4,0.3,0.6,0.4c-1.5-1.2-6-48.9-6.9-54.2
	S292.1,208.3,292.1,208.3z"/>
<path class="st1" d="M273.4,158.5v0.2c0.8,11.2,0.9,22.5,0.3,33.8c0,2,1,3.9,2.6,5.1c1.1-14.5,1.1-29,0-43.4
	C275.3,157.5,273.4,158.5,273.4,158.5z"/>
<ellipse class="st0" cx="136" cy="283" rx="30.6" ry="17.7"/>
<path class="st6" d="M148.4,273.6c-0.8-0.4-1.6-0.8-2.5-1.2l0,0l-4.7-2.1l0.4,0.8c-3.7-0.7-7.4-0.8-11.1-0.1l0.2-0.9l-5.6,2.5l0,0
	c-0.7,0.3-1.4,0.6-2.1,1c-7,4-7,10.5,0,14.6s18.3,4,25.2,0S155.4,277.6,148.4,273.6z"/>
<path class="st5" d="M141.7,277.4c-3.7,1.9-8.1,1.9-11.8,0c-3.3-1.9-3.3-4.9,0-6.8c3.7-1.9,8.1-1.9,11.8,0
	C145,272.4,145,275.5,141.7,277.4z"/>
<path class="st5" d="M135.8,275.3L135.8,275.3c-1.6,0-2.8-1.3-2.8-2.8v-36h5.7v36C138.6,274,137.4,275.3,135.8,275.3z"/>
<path class="st6" d="M137.8,237.8c-1.3,0.7-2.8,0.7-4.1,0c-0.7-0.2-1-0.9-0.8-1.6c0.1-0.4,0.4-0.7,0.8-0.8c1.3-0.7,2.8-0.7,4.1,0
	c0.7,0.2,1,0.9,0.8,1.6C138.5,237.4,138.2,237.7,137.8,237.8z"/>
<path class="st5" d="M135.8,237.7L135.8,237.7c-1.3,0-2.3-1-2.3-2.3l0,0v-33.8h4.6v33.8C138.1,236.7,137.1,237.7,135.8,237.7
	C135.8,237.7,135.8,237.7,135.8,237.7z"/>
<path class="st9" d="M168.9,219.3V218l1.9-0.3l2.1-1.6c0.4-0.3,0.9-0.3,1.4-0.1l1.5,0.9l1.5-0.2v1.3l0,0c0,0.2-0.2,0.3-0.4,0.4
	l-4.9,2.2c-0.4,0.2-0.9,0.2-1.3,0l-1.6-0.9C169.1,219.7,169,219.5,168.9,219.3L168.9,219.3z"/>
<path class="st5" d="M169.2,217.6l3.8-2.8c0.4-0.2,1-0.2,1.4,0l2.8,1.6c0.4,0.2,0.4,0.6-0.1,0.8l-4.9,2.2c-0.4,0.2-0.9,0.2-1.3-0.1
	l-1.6-0.9C168.9,218.2,168.9,217.9,169.2,217.6z"/>
<path class="st9" d="M162.8,224c0.5,0,1-0.1,1.5-0.4l5.9-3.4c0.3-0.2,0.4-0.6,0.2-0.9c0,0,0,0,0,0c-0.2-0.3-0.6-0.4-0.9-0.2
	l-5.8,3.4c-0.5,0.3-1.1,0.3-1.7,0l-9.7-5.6c-0.3-0.2-0.7-0.1-0.9,0.2s-0.1,0.7,0.2,0.9l9.7,5.6C161.8,223.9,162.3,224,162.8,224z"/>
<radialGradient id="SVGID_1_" cx="44.56" cy="95.33" r="57.93" gradientTransform="matrix(1 0 0 -1 0 300)" gradientUnits="userSpaceOnUse">
	<stop  offset="0" style="stop-color:#01C8EF"/>
	<stop  offset="9.000000e-02" style="stop-color:#03BEE9"/>
	<stop  offset="0.24" style="stop-color:#08A5D7"/>
	<stop  offset="0.43" style="stop-color:#107BBB"/>
	<stop  offset="0.45" style="stop-color:#1177B8"/>
	<stop  offset="1" style="stop-color:#112564"/>
</radialGradient>
<polygon class="st18" points="106.6,211.7 116,206.2 110.7,203.8 106.2,207 "/>
<path class="st5" d="M166.9,203.6c-0.6-0.3-1.1-0.6-1.6-1l-20-14.7c-3.6-2.6-7.3-3.3-10.2-1.9l-0.2,0.1l0,0l-27.6,16l2.5,0.8
	l9.7,4.4l13.1,9.4l10.4,5.5l0.5,0.1c2.4-2,5.1-3.8,6.6-6.8c2.6-4.5,9.7-5.8,13.9-9.4c0.4,0.3,0.9,0.5,1.3,0.7
	C166.1,206,166.4,204.8,166.9,203.6z"/>
<path class="st15" d="M175.7,196.9c-0.4,0-0.8,0.1-1.1,0.4l0,0l-27,15.6l1,4.1l1-0.5c-1.6,2.4-3.9,4-6.1,5.8l3,0.6l26.5-15.4
	l0.4-0.2c0.4-0.2,0.7-0.4,1-0.6l0,0l0,0c2-1.6,3.1-4.3,3.1-7.6v-0.4C177.4,197.8,176.6,197,175.7,196.9z"/>
<path class="st19" d="M138.6,185.3c1.9,0.1,3.7,0.7,5.3,1.7C142.3,186,140.5,185.4,138.6,185.3z"/>
<path class="st9" d="M150.9,214.2v-0.3c0-1-0.8-1.9-1.9-1.9s-1.9,0.8-1.9,1.9v0.3c0,2.5-0.8,4.3-2.2,5c-1.6,0.8-3.9,0.2-6.3-1.6
	l-20-14.6c-3.1-2.2-6.2-3.1-8.9-2.4l16.5-9.6l-19.1,11.1l2.5,0.8l9.7,4.4l13.2,9.4l10.4,5.5l0.5,0.1c2.4-2,5.1-3.8,6.6-6.8
	c0.3-0.4,0.6-0.9,0.9-1.2C150.9,214.4,150.9,214.3,150.9,214.2z"/>
<path class="st6" d="M142.9,223.9c-2.6-0.1-5-1-7-2.6l-20-14.6c-2.4-1.8-4.8-2.4-6.3-1.6c-1.4,0.7-2.2,2.5-2.2,5
	c0,1-0.8,1.9-1.9,1.9s-1.9-0.8-1.9-1.9l0,0c0-3.9,1.5-7,4.2-8.3c2.9-1.5,6.6-0.8,10.2,1.9l20,14.6c2.4,1.8,4.8,2.4,6.3,1.6
	c1.4-0.7,2.2-2.5,2.2-5v-0.3c0-1,0.8-1.9,1.9-1.9s1.9,0.8,1.9,1.9v0.3c0,3.9-1.5,7-4.2,8.3C145.1,223.7,144,223.9,142.9,223.9z"/>
<path class="st2" d="M127.2,256.7c0,0-3.8-1.9-6.1,0.9s-5.6,9.5-5.7,14s3.6,4.2,5.8,3.1s8.6-10.3,8.9-12.1s-0.5-4.3-1.1-4.7
	S127.2,256.7,127.2,256.7z"/>
<path class="st20" d="M128,255.8l0.2,3.9c0,0.8-0.4,1.6-1.1,2c-0.9,0.5-1.9,0.6-2.9,0.5c-2.8-0.5-3.1-1.3-3.3-5.2
	S128,255.8,128,255.8z"/>
<path class="st2" d="M113.4,249.2c0,0-3.8-1.9-6.1,0.9s-5.6,9.5-5.7,14s3.6,4.2,5.8,3.1s8.6-10.3,8.9-12.1s-0.4-4.3-1.1-4.7
	S113.4,249.2,113.4,249.2z"/>
<path class="st20" d="M114.3,248.3l0.2,3.9c0,0.8-0.4,1.6-1.1,2c-0.9,0.5-1.9,0.6-2.9,0.5c-2.8-0.5-3.1-1.3-3.3-5.2
	S114.3,248.3,114.3,248.3z"/>
<path class="st3" d="M147.9,176.6c-1.1-18.1-19.6,2.7-19.6,2.7l-12.7,12.5l-11.4,12.5c-2.2,2.4-3.3,5.7-2.8,9l4.6,35.2
	c0.2,1.7,1.7,3,3.5,3c0.6,0,1.1,0,1.7-0.1c2.3-0.3,4-2.3,3.8-4.6l-0.8-32.9l24-14.4C138.1,199.4,149,194.8,147.9,176.6z"/>
<path class="st3" d="M161.7,183.5c-1.1-18.1-19.6,2.7-19.6,2.7l-12.7,12.4l-11.4,12.5c-2.2,2.4-3.3,5.7-2.8,9l4.6,35.2
	c0.2,1.7,1.7,3,3.5,3c0.6,0,1.1-0.1,1.7-0.1c2.3-0.3,4-2.3,3.8-4.6l-0.9-32.9l24-14.4C151.8,206.3,162.8,201.7,161.7,183.5z"/>
<path class="st6" d="M150.7,125.3c14,5.8,13.8,14.1,13.8,14.1s-2.8,30.4-1.8,50.8c0.4,8.5-45.1,9.1-38.4-13.5
	c8-26.7,5-48.4,8.8-51.6S147.1,123.8,150.7,125.3z"/>
<ellipse transform="matrix(0.2494 -0.9684 0.9684 0.2494 -15.4946 241.7393)" class="st4" cx="148.2" cy="130.9" rx="5.3" ry="7.2"/>
<path class="st7" d="M149.3,137c-0.9,0-1.7-0.1-2.6-0.3c-4.2-1.1-7-4.6-6.2-7.8s4.9-4.9,9.2-3.8s7,4.6,6.2,7.8l0,0
	c-0.5,1.7-1.7,3-3.4,3.6C151.4,136.8,150.4,137,149.3,137z M147.1,126c-2.6,0-4.8,1.2-5.3,3.2c-0.6,2.5,1.7,5.2,5.2,6.1
	c1.6,0.5,3.3,0.4,4.9-0.2c1.2-0.4,2.2-1.4,2.6-2.7l0,0c0.6-2.5-1.7-5.2-5.2-6.1C148.6,126.1,147.9,126.1,147.1,126L147.1,126z"/>
<path class="st4" d="M145.1,124.7c0.1,1.7,0,3.3-0.1,5c-0.1,1.4,4.8,2.7,6.1,1.4s0.8-2.6,1.1-7.3S145.1,124.7,145.1,124.7z"/>
<path class="st8" d="M152.1,123.8c0,0-1.2,4.4-7.2,6.1l0.1-4L152.1,123.8z"/>
<circle class="st4" cx="145.2" cy="114.8" r="10.8"/>
<path class="st8" d="M147.9,115.7c0,0-5.9,2.6-10.1,2.6s-3.2-3.4-3.2-3.4l12.2-1.8L147.9,115.7z"/>
<path class="st17" d="M136.6,116.3c0,0,5.2-2.2,9.7-1.3c1.1,0.2,2,0.8,2.8,1.6c0.2,0.3,0.5,0.5,0.8,0.6c0.8,0.2,2.1-3.2,3.7-3.2
	s2.6,1,1.3,3.1s-0.9,4.4-0.2,4.7s6.9-4.5,1.3-15.4s-19.6-5.1-21.8-2.8c0,0-2.3,2-4.2,0.2C130,103.8,127.9,119.5,136.6,116.3z"/>
<path class="st4" d="M156.6,161.7v8.2c0,0.9-0.4,1.8-1.1,2.5l-16.9,15.4l1.9,3l22.3-15c1-0.8,1.7-1.9,1.8-3.2l1.5-15.6L156.6,161.7z
	"/>
<path class="st6" d="M163.3,135.3c0,0,5.1,7.7,7,28c0,0-8.8,2.8-13.7,1.2S163.3,135.3,163.3,135.3z"/>
<path class="st1" d="M155.6,145.1c0,0-2,10.7-2.1,15.8c0,1.4,0.8,2.6,2.1,3.1l0,0V145.1z"/>
<path class="st2" d="M151.2,198.5l-3.7-0.5l-24.1-13.9c-1-0.4-2.1-0.4-3,0.1l-17.1,9.9l-2.3-0.3v2.2l0,0c0,0.3,0.2,0.7,0.5,0.8
	l27.3,15.8c1,0.4,2.1,0.4,3-0.1l18.6-10.7c0.5-0.3,0.8-0.7,0.7-1l0,0V198.5z"/>
<path class="st11" d="M133.1,189.7l-1.7-1h-18.8l-9.3,5.4l-2.3-0.3v2.2l0,0c0,0.3,0.2,0.7,0.5,0.8l27.3,15.8c0.5,0.2,1,0.3,1.6,0.3
	L133.1,189.7z"/>
<path class="st13" d="M102.1,193.9l-1-0.1v2.2l0,0c0,0.3,0.2,0.7,0.5,0.8l0.5,0.3V193.9z"/>
<path class="st21" d="M129.2,212.7c0.8,0.3,1.8,0.2,2.6-0.2v-3.8h-2.6V212.7z"/>
<path class="st7" d="M128.9,210.3l-27.3-15.8c-0.8-0.4-0.7-1.2,0.2-1.7l18.6-10.7c0.9-0.5,2-0.6,3-0.1l27.3,15.8
	c0.8,0.4,0.7,1.2-0.2,1.7l-18.6,10.7C131,210.7,129.9,210.8,128.9,210.3z"/>
<path class="st12" d="M128.4,207.9l-22.7-13.1c-0.7-0.4-0.6-1,0.2-1.4l10-5.6c0.8-0.4,1.7-0.5,2.5-0.1l22.7,13.2
	c0.6,0.4,0.6,1-0.2,1.4l-10,5.6C130.1,208.3,129.2,208.3,128.4,207.9z"/>
<path class="st4" d="M121.4,181.6l-0.3,1.9c-0.2,1.6-0.2,3.2,0.1,4.8l0.3,1.7c0.2,0.9,0.9,1.7,1.9,1.8l0,0c0.7,0.1,1.4-0.3,1.5-1
	c0,0,0-0.1,0-0.1l0.4-4c0,0,1,1.4,1.5,1.4s-0.6-4-1.7-6.3S121.4,181.6,121.4,181.6z"/>
<path class="st4" d="M130.7,151.6l-2.9,5.8c-0.7,1.4-1.1,2.9-1.2,4.4l-1.3,19.9l-3.9-0.1l-1.8-22.3c-0.1-0.7,0-1.4,0.1-2.1l2-11.3
	L130.7,151.6z"/>
<path class="st2" d="M128,211.8l-2.3-3l-24.1-13.9c-0.9-0.6-1.4-1.6-1.4-2.7v-19.7l-1.4-1.8l1.3-0.8l0,0c0.3-0.2,0.7-0.2,1,0.1
	l27.3,15.8c0.9,0.6,1.4,1.6,1.4,2.7V210c0.1,0.4-0.1,0.9-0.5,1.1l0,0L128,211.8z"/>
<path class="st11" d="M111.3,200.5l-1.7-1l-9.4-16.3v-10.7l-1.4-1.8l1.3-0.8l0,0c0.3-0.2,0.7-0.2,1,0.1l27.3,15.8
	c0.4,0.3,0.8,0.7,1,1.2L111.3,200.5z"/>
<path class="st13" d="M99.4,171.5l-0.6-0.8l1.3-0.8l0,0c0.3-0.2,0.7-0.2,1,0.1l0.5,0.3L99.4,171.5z"/>
<path class="st21" d="M128.6,186c0.7,0.6,1.1,1.4,1.1,2.3l-2.7,1.5l-1.3-2.2L128.6,186z"/>
<path class="st7" d="M127.1,186.6l-27.3-15.8c-0.8-0.4-1.4,0-1.4,1.1v21.5c0,1.1,0.5,2.1,1.4,2.7l27.2,15.8c0.8,0.4,1.4,0,1.4-1.1
	v-21.5C128.4,188.2,127.9,187.2,127.1,186.6z"/>
<path class="st4" d="M140.5,190.8l-0.4,0.9c-0.5,1-1.3,1.9-2.3,2.5l-2.7,1.7c-0.8,0.5-1.9,0.6-2.8,0.1l-0.1-0.1
	c-0.7-0.5-0.9-1.5-0.4-2.3c0.1-0.1,0.1-0.2,0.2-0.2l2.8-2.9c0,0-1.6,1.2-2,0.7s1.6-2.1,3-2.2c1-0.1,2-0.5,2.8-1.2L140.5,190.8z"/>
<path class="st6" d="M133.3,125c0,0-10.4,11.3-14.6,21.7c2.8,4.4,7.2,7.5,12.2,8.9C139.7,158.1,133.3,125,133.3,125z"/>
<path class="st1" d="M129,154.9l1.7-16.3l-4,15.2C127.5,154.3,128.2,154.6,129,154.9z"/>
<path class="st7" d="M141.1,122.8l-2.8-0.8c0.8,1.2,1.9,2.1,3.3,2.6c1.9,0.5,2.2-1.1,2.2-1.1L141.1,122.8z"/>
</svg>
